<?xml version="1.0" encoding="UTF-8"?>
<svg width="26px" height="25px" viewBox="0 0 26 25" version="1.1" xmlns="http://www.w3.org/2000/svg" xmlns:xlink="http://www.w3.org/1999/xlink">
    <!-- Generator: Sketch 50.2 (55047) - http://www.bohemiancoding.com/sketch -->
    <title>noun_List_1791511</title>
    <desc>Created with Sketch.</desc>
    <defs></defs>
    <g id="Page-1" stroke="none" stroke-width="1" fill="none" fill-rule="evenodd">
        <g id="noun_List_1791511" fill="#B756BB">
            <path d="M9.5703125,5.46875 C9.5703125,4.92935938 10.0074844,4.4921875 10.546875,4.4921875 L19.921875,4.4921875 C20.46125,4.4921875 20.8984375,4.92935938 20.8984375,5.46875 C20.8984375,6.00814062 20.46125,6.4453125 19.921875,6.4453125 L10.546875,6.4453125 C10.0074844,6.4453125 9.5703125,6.00814062 9.5703125,5.46875 Z" id="Shape" fill-rule="nonzero"></path>
            <path d="M9.5703125,10.15625 C9.5703125,9.61685937 10.0074844,9.1796875 10.546875,9.1796875 L19.921875,9.1796875 C20.46125,9.1796875 20.8984375,9.61685937 20.8984375,10.15625 C20.8984375,10.6956406 20.46125,11.1328125 19.921875,11.1328125 L10.546875,11.1328125 C10.0074844,11.1328125 9.5703125,10.6956406 9.5703125,10.15625 Z" id="Shape" fill-rule="nonzero"></path>
            <path d="M10.546875,13.8671875 C10.0074844,13.8671875 9.5703125,14.3043594 9.5703125,14.84375 C9.5703125,15.3831406 10.0074844,15.8203125 10.546875,15.8203125 L19.921875,15.8203125 C20.46125,15.8203125 20.8984375,15.3831406 20.8984375,14.84375 C20.8984375,14.3043594 20.46125,13.8671875 19.921875,13.8671875 L10.546875,13.8671875 Z" id="Shape" fill-rule="nonzero"></path>
            <path d="M9.5703125,19.53125 C9.5703125,18.991875 10.0074844,18.5546875 10.546875,18.5546875 L19.921875,18.5546875 C20.46125,18.5546875 20.8984375,18.991875 20.8984375,19.53125 C20.8984375,20.070625 20.46125,20.5078125 19.921875,20.5078125 L10.546875,20.5078125 C10.0074844,20.5078125 9.5703125,20.070625 9.5703125,19.53125 Z" id="Shape" fill-rule="nonzero"></path>
            <path d="M4.8828125,3.3203125 C4.8828125,1.48696875 6.36940625,0 8.203125,0 L25.5859375,0 L25.5859375,21.6873437 C25.5859375,23.520625 24.099375,25 22.265625,25 L3.515625,25 C1.6819,25 0.1953125,23.520625 0.1953125,21.6873437 L0.1953125,9.375 L4.8828125,9.375 L4.8828125,3.3203125 Z M8.203125,1.953125 C7.44820313,1.953125 6.8359375,2.565 6.8359375,3.3203125 L6.8359375,21.6873437 C6.8359375,22.1740625 6.73103125,22.6295312 6.54220313,23.046875 L22.265625,23.046875 C23.020625,23.046875 23.6328125,22.4426562 23.6328125,21.6873437 L23.6328125,1.953125 L8.203125,1.953125 Z M2.1484375,11.328125 L2.1484375,21.6873437 C2.1484375,22.4426562 2.76070313,23.046875 3.515625,23.046875 C4.27054688,23.046875 4.8828125,22.4426562 4.8828125,21.6873437 L4.8828125,11.328125 L2.1484375,11.328125 Z" id="Shape"></path>
        </g>
    </g>
</svg>