<?xml version="1.0" encoding="UTF-8"?>
<svg width="78px" height="78px" viewBox="0 0 78 78" version="1.1" xmlns="http://www.w3.org/2000/svg" xmlns:xlink="http://www.w3.org/1999/xlink">
    <!-- Generator: Sketch 50.2 (55047) - http://www.bohemiancoding.com/sketch -->
    <title>top-page2</title>
    <desc>Created with Sketch.</desc>
    <defs></defs>
    <g id="Page-1" stroke="none" stroke-width="1" fill="none" fill-rule="evenodd">
        <g id="top-page2" transform="translate(39.000000, 39.000000) rotate(-90.000000) translate(-39.000000, -39.000000) translate(4.000000, 4.000000)" fill-rule="nonzero">
            <circle id="Oval-3" stroke="#333333" stroke-width="7" fill="#4E82DF" cx="35" cy="35" r="35"></circle>
            <g id="Group" transform="translate(11.333333, 18.000000)" fill="#FFFFFF">
                <g id="noun_chevron_152840" transform="translate(23.666667, 14.581196) rotate(-90.000000) translate(-23.666667, -14.581196) translate(9.666667, -9.085471)">
                    <path d="M26.5513704,27.0683061 L7.94168373,45.6779927 C7.03291073,46.5867657 5.84292466,47.0411523 4.65242165,47.0411523 C3.46191865,47.0411523 2.27193257,46.5867657 1.36315954,45.6779927 C-0.454386515,43.8619975 -0.454386515,40.9149468 1.36315954,39.0989516 L16.6830671,23.779044 L1.36315954,8.45861953 C-0.454386515,6.64262425 -0.454386515,3.6955736 1.36315954,1.87957835 C3.1807056,0.0620322885 6.12465461,0.0620322885 7.94220073,1.87957835 L26.5518873,20.4892649 C28.3689165,22.3052603 28.3689165,25.2528278 26.5513704,27.0683061 Z" id="Shape"></path>
                </g>
            </g>
        </g>
    </g>
</svg>