<?xml version="1.0" encoding="UTF-8"?>
<svg width="113px" height="113px" viewBox="0 0 113 113" version="1.1" xmlns="http://www.w3.org/2000/svg" xmlns:xlink="http://www.w3.org/1999/xlink">
    <!-- Generator: Sketch 50.2 (55047) - http://www.bohemiancoding.com/sketch -->
    <title>Group 2</title>
    <desc>Created with Sketch.</desc>
    <defs></defs>
    <g id="Page-1" stroke="none" stroke-width="1" fill="none" fill-rule="evenodd">
        <g id="Group-2" transform="translate(4.000000, 4.000000)" fill-rule="nonzero">
            <circle id="Oval-3" stroke="#333333" stroke-width="7" fill="#FF767D" cx="52.5" cy="52.5" r="52.5"></circle>
            <g id="Group" transform="translate(17.000000, 27.000000)" fill="#FFFFFF">
                <g id="noun_chevron_152840" transform="translate(35.500000, 21.871794) rotate(-90.000000) translate(-35.500000, -21.871794) translate(14.500000, -13.628206)">
                    <path d="M39.8270556,40.6024591 L11.9125256,68.5169891 C10.5493661,69.8801486 8.76438699,70.5617284 6.97863248,70.5617284 C5.19287797,70.5617284 3.40789886,69.8801486 2.04473931,68.5169891 C-0.681579772,65.7929962 -0.681579772,61.3724202 2.04473931,58.6484274 L25.0246007,35.668566 L2.04473931,12.6879293 C-0.681579772,9.96393638 -0.681579772,5.5433604 2.04473931,2.81936752 C4.7710584,0.0930484328 9.18698192,0.0930484328 11.9133011,2.81936752 L39.8278309,30.7338974 C42.5533747,33.4578904 42.5533747,37.8792417 39.8270556,40.6024591 Z" id="Shape"></path>
                </g>
            </g>
        </g>
    </g>
</svg>