<?xml version="1.0" encoding="utf-8"?>
<!-- Generator: Adobe Illustrator 22.0.1, SVG Export Plug-In . SVG Version: 6.00 Build 0)  -->
<svg version="1.1" id="Calque_1" xmlns="http://www.w3.org/2000/svg" xmlns:xlink="http://www.w3.org/1999/xlink" x="0px" y="0px"
	 viewBox="0 0 107 107" enable-background="new 0 0 107 107" xml:space="preserve">
<title>Group 2</title>
<desc>Created with Sketch.</desc>
<g id="Page-1">
	<g id="Group-2" transform="translate(1.000000, 1.000000)">
		<circle id="Oval-3" fill="#FF987A" stroke="#333333" stroke-width="2" cx="52.5" cy="52.5" r="52.5"/>
		<g id="Group" transform="translate(17.000000, 27.000000)">
			
				<g id="noun_chevron_152840" transform="translate(35.500000, 21.871794) rotate(-90.000000) translate(-35.500000, -21.871794) translate(14.500000, -13.628206)">
				<path id="Shape" fill="#FFFFFF" d="M39.827,40.602L11.913,68.517c-1.363,1.363-3.148,2.045-4.934,2.045
					s-3.571-0.682-4.934-2.045c-2.726-2.724-2.726-7.145,0-9.869l22.98-22.98L2.045,12.688c-2.726-2.724-2.726-7.145,0-9.869
					c2.726-2.726,7.142-2.726,9.869,0l27.915,27.915C42.553,33.458,42.553,37.879,39.827,40.602z"/>
			</g>
		</g>
	</g>
</g>
</svg>
