<?xml version="1.0" encoding="utf-8"?>
<!-- Generator: Adobe Illustrator 22.0.1, SVG Export Plug-In . SVG Version: 6.00 Build 0)  -->
<svg version="1.1" id="Calque_1" xmlns="http://www.w3.org/2000/svg" xmlns:xlink="http://www.w3.org/1999/xlink" x="0px" y="0px"
	 viewBox="0 0 25 23" style="enable-background:new 0 0 25 23;" xml:space="preserve">
<style type="text/css">
	.st0{fill:#4E82DF;}
</style>
<title>calendar-white</title>
<desc>Created with Sketch.</desc>
<g id="symbols">
	<g id="agenda-white-copy" transform="translate(-24.000000, -6.000000)">
		<g id="calendar-white" transform="translate(24.000000, 6.000000)">
			<path id="Shape" class="st0" d="M9.1,8.3h2c0.5,0,0.9,0.4,0.9,0.9v1c0,0.5-0.4,0.9-0.9,0.9h-2c-0.5,0-0.9-0.4-0.9-0.9v-1
				C8.3,8.7,8.7,8.3,9.1,8.3z"/>
			<path id="Shape_1_" class="st0" d="M14.7,8.3h2c0.5,0,0.9,0.4,0.9,0.9v1c0,0.5-0.4,0.9-0.9,0.9h-2c-0.5,0-0.9-0.4-0.9-0.9v-1
				C13.8,8.7,14.2,8.3,14.7,8.3z"/>
			<path id="Shape_2_" class="st0" d="M19.3,8.3h2c0.5,0,0.9,0.4,0.9,0.9v1c0,0.5-0.4,0.9-0.9,0.9h-2c-0.5,0-0.9-0.4-0.9-0.9v-1
				C18.4,8.7,18.8,8.3,19.3,8.3z"/>
			<path id="Shape_3_" class="st0" d="M4.5,12.9h2c0.5,0,0.9,0.4,0.9,0.9v1c0,0.5-0.4,0.9-0.9,0.9h-2c-0.5,0-0.9-0.4-0.9-0.9v-1
				C3.7,13.3,4.1,12.9,4.5,12.9z"/>
			<path id="Shape_4_" class="st0" d="M9.1,12.9h2c0.5,0,0.9,0.4,0.9,0.9v1c0,0.5-0.4,0.9-0.9,0.9h-2c-0.5,0-0.9-0.4-0.9-0.9v-1
				C8.3,13.3,8.7,12.9,9.1,12.9z"/>
			<path id="Shape_5_" class="st0" d="M14.7,12.9h2c0.5,0,0.9,0.4,0.9,0.9v1c0,0.5-0.4,0.9-0.9,0.9h-2c-0.5,0-0.9-0.4-0.9-0.9v-1
				C13.8,13.3,14.2,12.9,14.7,12.9z"/>
			<path id="Shape_6_" class="st0" d="M4.5,17.5h2c0.5,0,0.9,0.4,0.9,0.9v1c0,0.5-0.4,0.9-0.9,0.9h-2c-0.5,0-0.9-0.4-0.9-0.9v-1
				C3.7,17.9,4.1,17.5,4.5,17.5z"/>
			<path id="Shape_7_" class="st0" d="M9.1,17.5h2c0.5,0,0.9,0.4,0.9,0.9v1c0,0.5-0.4,0.9-0.9,0.9h-2c-0.5,0-0.9-0.4-0.9-0.9v-1
				C8.3,17.9,8.7,17.5,9.1,17.5z"/>
			<path id="Shape_8_" class="st0" d="M18.8,14.7c1.2,0,2.5-0.1,3.3-0.8v-0.4c0-0.3-0.4-0.6-0.9-0.6l0,0h-2c-0.5,0-0.9,0.3-0.9,0.6
				l0,0v0.7C18.4,14.4,18.6,14.6,18.8,14.7z"/>
			<path id="Shape_9_" class="st0" d="M16.5,18.7c0-0.4-0.1-0.8-0.1-1.2c-0.1,0-0.1,0-0.2,0h-1.7c-0.4,0-0.7,0.4-0.7,0.9v1
				c0,0.5,0.3,0.9,0.7,0.9c0,0,0,0,0,0h1.7c0.1,0,0.2,0,0.3-0.1C16.5,19.6,16.5,19.1,16.5,18.7z"/>
			<path id="Shape_10_" class="st0" d="M21.2,2.8c-0.5,0-0.9-0.2-0.9-0.5V0.5c0-0.3,0.4-0.5,0.9-0.5s0.9,0.2,0.9,0.5v1.8
				C22.1,2.6,21.7,2.8,21.2,2.8z"/>
			<path id="Shape_11_" class="st0" d="M15.6,2.8c-0.5,0-0.9-0.2-0.9-0.5V0.5c0-0.3,0.4-0.5,0.9-0.5c0.5,0,0.9,0.2,0.9,0.5v1.8
				C16.6,2.6,16.1,2.8,15.6,2.8z"/>
			<path id="Shape_12_" class="st0" d="M10.1,2.8c-0.5,0-0.9-0.2-0.9-0.5V0.5C9.2,0.2,9.6,0,10.1,0C10.6,0,11,0.2,11,0.5v1.8
				C11,2.6,10.6,2.8,10.1,2.8z"/>
			<path id="Shape_13_" class="st0" d="M22.6,1.8h-0.6v0.9c0,0.8-0.7,1.5-1.7,1.5c-0.9,0-1.7-0.7-1.7-1.5V1.8h-2v0.9
				c0,0.8-0.7,1.5-1.7,1.5c-0.9,0-1.7-0.7-1.7-1.5V1.8h-2v0.9c0,0.8-0.7,1.5-1.7,1.5S8.1,3.6,8.1,2.7V1.8h-2v0.9
				c0,0.8-0.7,1.5-1.7,1.5S2.8,3.6,2.8,2.7V1.8H2.2C1,1.8,0,2.7,0,3.8V21c0,1.1,1,2,2.2,2h20.4c1.2,0,2.2-0.9,2.2-2V3.8
				C24.8,2.7,23.8,1.8,22.6,1.8z M23.2,21c0,0.3-0.2,0.5-0.6,0.5h-4.3c1.5-1,3.5-2.5,4.9-5.3V21z M23.2,11.5c0,5.9-5.4,4.2-6.1,4.8
				s1,5.2-1.2,5.2H2.2c-0.3,0-0.6-0.2-0.6-0.5V7h21.5V11.5z"/>
			<path id="Shape_14_" class="st0" d="M5.5,2.8C5,2.8,4.6,2.5,4.6,2.3V0.5C4.6,0.2,5,0,5.5,0s0.9,0.2,0.9,0.5v1.8
				C6.4,2.6,6,2.8,5.5,2.8z"/>
		</g>
	</g>
</g>
</svg>
