<?xml version="1.0" encoding="UTF-8"?>
<svg width="25px" height="23px" viewBox="0 0 25 23" version="1.1" xmlns="http://www.w3.org/2000/svg" xmlns:xlink="http://www.w3.org/1999/xlink">
    <!-- Generator: Sketch 50.2 (55047) - http://www.bohemiancoding.com/sketch -->
    <title>calendar-white</title>
    <desc>Created with Sketch.</desc>
    <defs></defs>
    <g id="symbols" stroke="none" stroke-width="1" fill="none" fill-rule="evenodd">
        <g id="agenda-white" transform="translate(-24.000000, -6.000000)" fill="#FFFFFF" fill-rule="nonzero">
            <g id="calendar-white" transform="translate(24.000000, 6.000000)">
                <path d="M9.13185185,8.28 L11.1081481,8.28 C11.5851852,8.28 11.96,8.66923077 11.96,9.16461538 L11.96,10.1553846 C11.96,10.6507692 11.5851852,11.04 11.1081481,11.04 L9.13185185,11.04 C8.65481481,11.04 8.28,10.6507692 8.28,10.1553846 L8.28,9.16461538 C8.31407407,8.66923077 8.68888889,8.28 9.13185185,8.28 Z" id="Shape"></path>
                <path d="M14.6518519,8.28 L16.6281481,8.28 C17.1051852,8.28 17.48,8.66923077 17.48,9.16461538 L17.48,10.1553846 C17.48,10.6507692 17.1051852,11.04 16.6281481,11.04 L14.6518519,11.04 C14.1748148,11.04 13.8,10.6507692 13.8,10.1553846 L13.8,9.16461538 C13.8,8.66923077 14.1748148,8.28 14.6518519,8.28 Z" id="Shape"></path>
                <path d="M19.2518519,8.28 L21.2281481,8.28 C21.7051852,8.28 22.08,8.66923077 22.08,9.16461538 L22.08,10.1553846 C22.08,10.6507692 21.7051852,11.04 21.2281481,11.04 L19.2518519,11.04 C18.7748148,11.04 18.4,10.6507692 18.4,10.1553846 L18.4,9.16461538 C18.4,8.66923077 18.8088889,8.28 19.2518519,8.28 Z" id="Shape"></path>
                <path d="M4.53185185,12.88 L6.50814815,12.88 C6.98518519,12.88 7.36,13.2692308 7.36,13.7646154 L7.36,14.7553846 C7.36,15.2507692 6.98518519,15.64 6.50814815,15.64 L4.53185185,15.64 C4.05481481,15.64 3.68,15.2507692 3.68,14.7553846 L3.68,13.7646154 C3.68,13.2692308 4.05481481,12.88 4.53185185,12.88 Z" id="Shape"></path>
                <path d="M9.13185185,12.88 L11.1081481,12.88 C11.5851852,12.88 11.96,13.2692308 11.96,13.7646154 L11.96,14.7553846 C11.96,15.2507692 11.5851852,15.64 11.1081481,15.64 L9.13185185,15.64 C8.65481481,15.64 8.28,15.2507692 8.28,14.7553846 L8.28,13.7646154 C8.31407407,13.2692308 8.68888889,12.88 9.13185185,12.88 Z" id="Shape"></path>
                <path d="M14.6518519,12.88 L16.6281481,12.88 C17.1051852,12.88 17.48,13.2692308 17.48,13.7646154 L17.48,14.7553846 C17.48,15.2507692 17.1051852,15.64 16.6281481,15.64 L14.6518519,15.64 C14.1748148,15.64 13.8,15.2507692 13.8,14.7553846 L13.8,13.7646154 C13.8,13.2692308 14.1748148,12.88 14.6518519,12.88 Z" id="Shape"></path>
                <path d="M4.53185185,17.48 L6.50814815,17.48 C6.98518519,17.48 7.36,17.8643038 7.36,18.3534177 L7.36,19.3665823 C7.36,19.8556962 6.98518519,20.24 6.50814815,20.24 L4.53185185,20.24 C4.05481481,20.24 3.68,19.8556962 3.68,19.3665823 L3.68,18.3534177 C3.68,17.8992405 4.05481481,17.48 4.53185185,17.48 Z" id="Shape"></path>
                <path d="M9.13185185,17.48 L11.1081481,17.48 C11.5851852,17.48 11.96,17.8643038 11.96,18.3534177 L11.96,19.3665823 C11.96,19.8556962 11.5851852,20.24 11.1081481,20.24 L9.13185185,20.24 C8.65481481,20.24 8.28,19.8556962 8.28,19.3665823 L8.28,18.3534177 C8.31407407,17.8992405 8.68888889,17.48 9.13185185,17.48 Z" id="Shape"></path>
                <path d="M18.7748148,14.72 C20.0014815,14.6951351 21.2281481,14.5956757 22.08,13.8994595 L22.08,13.5016216 C22.08,13.1535135 21.7051852,12.88 21.2281481,12.88 C21.2281481,12.88 21.2281481,12.88 21.2281481,12.88 L19.2518519,12.88 C18.7748148,12.88 18.4,13.1535135 18.4,13.5016216 C18.4,13.5016216 18.4,13.5016216 18.4,13.5016216 L18.4,14.2227027 C18.4340741,14.3967568 18.5703704,14.5956757 18.7748148,14.72 Z" id="Shape"></path>
                <path d="M16.4719149,18.6830769 C16.4425532,18.2584615 16.4131915,17.8692308 16.4131915,17.5153846 C16.3544681,17.48 16.2957447,17.48 16.2370213,17.48 L14.5340426,17.48 C14.1229787,17.48 13.8,17.8692308 13.8,18.3646154 L13.8,19.3553846 C13.8,19.8507692 14.1229787,20.24 14.5046809,20.24 C14.5046809,20.24 14.5046809,20.24 14.5340426,20.24 L16.2370213,20.24 C16.3544681,20.24 16.4425532,20.2046154 16.56,20.1692308 C16.5306383,19.6384615 16.5012766,19.0723077 16.4719149,18.6830769 Z" id="Shape"></path>
                <path d="M21.16,2.76 C20.654,2.76 20.24,2.53821429 20.24,2.26714286 L20.24,0.492857143 C20.24,0.221785714 20.654,0 21.16,0 C21.666,0 22.08,0.221785714 22.08,0.492857143 L22.08,2.26714286 C22.08,2.56285714 21.666,2.76 21.16,2.76 Z" id="Shape"></path>
                <path d="M15.64,2.76 C15.134,2.76 14.72,2.53821429 14.72,2.26714286 L14.72,0.492857143 C14.72,0.221785714 15.134,0 15.64,0 C16.146,0 16.56,0.221785714 16.56,0.492857143 L16.56,2.26714286 C16.56,2.56285714 16.146,2.76 15.64,2.76 Z" id="Shape"></path>
                <path d="M10.12,2.76 C9.614,2.76 9.2,2.53821429 9.2,2.26714286 L9.2,0.492857143 C9.2,0.221785714 9.614,0 10.12,0 C10.626,0 11.04,0.221785714 11.04,0.492857143 L11.04,2.26714286 C11.04,2.56285714 10.626,2.76 10.12,2.76 Z" id="Shape"></path>
                <path d="M22.632,1.84 L22.08,1.84 L22.08,2.74255924 C22.08,3.56990521 21.3348,4.24682464 20.424,4.24682464 C19.5132,4.24682464 18.768,3.56990521 18.768,2.74255924 L18.768,1.84 L16.7532,1.84 L16.7532,2.74255924 C16.7532,3.56990521 16.008,4.24682464 15.0972,4.24682464 C14.1864,4.24682464 13.4412,3.56990521 13.4412,2.74255924 L13.4412,1.84 L11.4264,1.84 L11.4264,2.74255924 C11.4264,3.56990521 10.6812,4.24682464 9.7704,4.24682464 C8.8596,4.24682464 8.1144,3.56990521 8.1144,2.74255924 L8.1144,1.84 L6.072,1.84 L6.072,2.74255924 C6.072,3.56990521 5.3268,4.24682464 4.416,4.24682464 C3.5052,4.24682464 2.76,3.56990521 2.76,2.74255924 L2.76,1.84 L2.208,1.84 C0.9936,1.84 0,2.74255924 0,3.8456872 L0,20.9943128 C0,22.0974408 0.9936,23 2.208,23 L22.632,23 C23.8464,23 24.84,22.0974408 24.84,20.9943128 L24.84,3.8456872 C24.84,2.74255924 23.8464,1.84 22.632,1.84 Z M23.184,20.9943128 C23.184,21.2700948 22.9356,21.4957346 22.632,21.4957346 L18.3264,21.4957346 C19.8168,20.5179621 21.804,19.0387678 23.184,16.1806635 L23.184,20.9943128 Z M23.184,11.4672986 C23.184,17.4091469 17.7744,15.6541706 17.0844,16.2558768 C16.3944,16.8575829 18.1056,21.4957346 15.87,21.4957346 L2.208,21.4957346 C1.9044,21.4957346 1.656,21.2700948 1.656,20.9943128 L1.656,6.95450237 L23.184,6.95450237 L23.184,11.4672986 Z" id="Shape"></path>
                <path d="M5.52,2.76 C5.014,2.76 4.6,2.53821429 4.6,2.26714286 L4.6,0.492857143 C4.6,0.221785714 5.014,0 5.52,0 C6.026,0 6.44,0.221785714 6.44,0.492857143 L6.44,2.26714286 C6.44,2.56285714 6.026,2.76 5.52,2.76 Z" id="Shape"></path>
            </g>
        </g>
    </g>
</svg>