<?xml version="1.0" encoding="utf-8"?>
<!-- Generator: Adobe Illustrator 22.0.1, SVG Export Plug-In . SVG Version: 6.00 Build 0)  -->
<svg version="1.1" id="Calque_1" xmlns="http://www.w3.org/2000/svg" xmlns:xlink="http://www.w3.org/1999/xlink" x="0px" y="0px"
	 viewBox="0 0 15 16" style="enable-background:new 0 0 15 16;" xml:space="preserve">
<style type="text/css">
	.st0{fill:#676767;}
</style>
<title>noun_1415970_cc</title>
<desc>Created with Sketch.</desc>
<g id="symbols">
	<g id="_x36_-janvier-2017-Actualités" transform="translate(0.000000, -47.000000)">
		<g id="noun_1415970_cc" transform="translate(0.000000, 47.200001)">
			<path id="Shape" class="st0" d="M10.8,3.3c-0.1-1.8-1.6-3.1-3.3-3.1S4.3,1.5,4.2,3.3C3.9,3.5,3.8,3.9,3.8,4.2
				c0,0.5,0.3,0.9,0.7,1.1c0.5,1.5,1.7,2.9,3,2.9s2.5-1.4,3-2.9c0.4-0.2,0.7-0.7,0.7-1.1C11.2,3.9,11.1,3.5,10.8,3.3z"/>
			<path id="Shape_1_" class="st0" d="M14.9,15.5c0,0.2-0.1,0.3-0.3,0.3H0.4c-0.2,0-0.3-0.1-0.3-0.3C0.1,14.8,0,12,0.4,11.4
				C0.9,10.8,4.5,9.2,5,9.1c0.1,0,0.2,0,0.2,0.1l2.1,2.4c0.1,0.1,0.2,0.1,0.2,0l2.2-2.4c0-0.1,0.1-0.1,0.2-0.1
				c0.6,0.2,4.2,1.7,4.6,2.3C15,12,14.9,14.8,14.9,15.5z"/>
		</g>
	</g>
</g>
</svg>
