<?xml version="1.0" encoding="UTF-8"?>
<svg width="24px" height="24px" viewBox="0 0 24 24" version="1.1" xmlns="http://www.w3.org/2000/svg" xmlns:xlink="http://www.w3.org/1999/xlink">
    <!-- Generator: Sketch 50.2 (55047) - http://www.bohemiancoding.com/sketch -->
    <title>plus</title>
    <desc>Created with Sketch.</desc>
    <defs></defs>
    <g id="Page-1" stroke="none" stroke-width="1" fill="none" fill-rule="evenodd">
        <g id="plus" fill="#676767" fill-rule="nonzero">
            <path d="M12,0 C5.37272728,0 0,5.37245454 0,12 C0,18.6275454 5.37272728,24 12,24 C18.6272728,24 24,18.6275454 24,12 C24,5.37245454 18.6272728,0 12,0 Z M12,21.8181818 C6.57763637,21.8181818 2.18181818,17.4223637 2.18181818,12 C2.18181818,6.57763637 6.57763637,2.18181818 12,2.18181818 C17.4223637,2.18181818 21.8181818,6.57763637 21.8181818,12 C21.8181818,17.4223637 17.4223637,21.8181818 12,21.8181818 Z M16.3636363,10.9090909 L13.0909091,10.9090909 L13.0909091,7.63636363 C13.0909091,7.03390909 12.6024546,6.54545454 12,6.54545454 C11.3975454,6.54545454 10.9090909,7.03390909 10.9090909,7.63636363 L10.9090909,10.9090909 L7.63636363,10.9090909 C7.03390909,10.9090909 6.54545454,11.3975454 6.54545454,12 C6.54545454,12.6024546 7.03390909,13.0909091 7.63636363,13.0909091 L10.9090909,13.0909091 L10.9090909,16.3636363 C10.9090909,16.9660909 11.3975454,17.4545454 12,17.4545454 C12.6024546,17.4545454 13.0909091,16.9660909 13.0909091,16.3636363 L13.0909091,13.0909091 L16.3636363,13.0909091 C16.9660909,13.0909091 17.4545454,12.6024546 17.4545454,12 C17.4545454,11.3975454 16.9660909,10.9090909 16.3636363,10.9090909 Z" id="Shape"></path>
        </g>
    </g>
</svg>