<?xml version="1.0" encoding="UTF-8"?>
<svg width="26px" height="17px" viewBox="0 0 26 17" version="1.1" xmlns="http://www.w3.org/2000/svg" xmlns:xlink="http://www.w3.org/1999/xlink">
    <!-- Generator: Sketch 50.2 (55047) - http://www.bohemiancoding.com/sketch -->
    <title>noun_45760_cc</title>
    <desc>Created with Sketch.</desc>
    <defs></defs>
    <g id="symbols" stroke="none" stroke-width="1" fill="none" fill-rule="evenodd">
        <g id="Bouton-Afficher-tout" transform="translate(-14.000000, -10.000000)" fill="#FFFFFF" fill-rule="nonzero">
            <g id="noun_45760_cc" transform="translate(14.000000, 10.000000)">
                <path d="M13.076375,0 C4.870125,0 0,8.125 0,8.125 C0,8.125 4.870125,16.25 13.076375,16.25 C21.120125,16.25 26,8.125 26,8.125 C26,8.125 21.120125,0 13.076375,0 Z M13,2.4375 C16.16875,2.4375 18.6875,4.95625 18.6875,8.125 C18.6875,11.29375 16.16875,13.8125 13,13.8125 C9.83125,13.8125 7.3125,11.29375 7.3125,8.125 C7.3125,4.95625 9.83125,2.4375 13,2.4375 Z M13,4.875 C11.2125,4.875 9.75,6.3375 9.75,8.125 C9.75,9.9125 11.2125,11.375 13,11.375 C14.7875,11.375 16.25,9.9125 16.25,8.125 C16.25,7.6375 16.1581875,7.236125 15.9956875,6.829875 C15.7519375,7.154875 15.4366875,7.3125 15.0304375,7.3125 C14.3804375,7.3125 13.8116875,6.74375 13.8116875,6.09375 C13.8116875,5.6875 13.9693125,5.37225 14.2943125,5.1285 C13.8880625,4.966 13.4866875,4.8741875 12.9991875,4.8741875 L13,4.875 Z" id="Shape"></path>
            </g>
        </g>
    </g>
</svg>