<?xml version="1.0" encoding="UTF-8"?>
<svg width="20px" height="21px" viewBox="0 0 20 21" version="1.1" xmlns="http://www.w3.org/2000/svg" xmlns:xlink="http://www.w3.org/1999/xlink">
    <!-- Generator: Sketch 50.2 (55047) - http://www.bohemiancoding.com/sketch -->
    <title>filter2</title>
    <desc>Created with Sketch.</desc>
    <defs></defs>
    <g id="symbols" stroke="none" stroke-width="1" fill="none" fill-rule="evenodd">
        <g id="bouton-filtrer" transform="translate(-19.000000, -8.000000)" fill="#FFFFFF" fill-rule="nonzero">
            <g id="filter2" transform="translate(19.000000, 8.000000)">
                <path d="M0.789473684,3.56037152 L13.0263158,3.56037152 C13.3421053,4.59881321 14.2368421,5.34055728 15.2631579,5.34055728 C16.2894737,5.34055728 17.1578947,4.59881321 17.5,3.56037152 L19.2105263,3.56037152 C19.6578947,3.56037152 20,3.1746646 20,2.67027864 C20,2.16589267 19.6578947,1.78018576 19.2105263,1.78018576 L17.5,1.78018576 C17.1842105,0.741744066 16.2894737,0 15.2631579,0 C14.2368421,0 13.3684211,0.741744066 13.0263158,1.78018576 L0.789473684,1.78018576 C0.342105263,1.78018576 0,2.16589267 0,2.67027864 C0,3.1746646 0.342105263,3.56037152 0.789473684,3.56037152 Z M15.2631579,1.18679051 C16,1.18679051 16.5789474,1.83952528 16.5789474,2.67027864 C16.5789474,3.50103199 16,4.15376677 15.2631579,4.15376677 C14.5263158,4.15376677 13.9473684,3.50103199 13.9473684,2.67027864 C13.9473684,1.83952528 14.5263158,1.18679051 15.2631579,1.18679051 Z M19.2105263,9.19762642 L6.97368421,9.19762642 C6.65789474,8.15918473 5.76315789,7.41744066 4.73684211,7.41744066 C3.71052632,7.41744066 2.84210526,8.15918473 2.5,9.19762642 L0.789473684,9.19762642 C0.342105263,9.19762642 0,9.58333333 0,10.0877193 C0,10.5921053 0.342105263,10.9778122 0.789473684,10.9778122 L2.5,10.9778122 C2.81578947,12.0162539 3.71052632,12.7579979 4.73684211,12.7579979 C5.76315789,12.7579979 6.63157895,12.0162539 6.97368421,10.9778122 L19.2105263,10.9778122 C19.6578947,10.9778122 20,10.5921053 20,10.0877193 C20,9.58333333 19.6578947,9.19762642 19.2105263,9.19762642 Z M4.73684211,11.5712074 C4,11.5712074 3.42105263,10.9184727 3.42105263,10.0877193 C3.42105263,9.25696594 4,8.60423117 4.73684211,8.60423117 C5.47368421,8.60423117 6.05263158,9.25696594 6.05263158,10.0877193 C6.05263158,10.9184727 5.47368421,11.5712074 4.73684211,11.5712074 Z M19.2105263,16.6150671 L12.2368421,16.6150671 C11.9210526,15.5766254 11.0263158,14.8348813 10,14.8348813 C8.97368421,14.8348813 8.10526316,15.5766254 7.76315789,16.6150671 L0.789473684,16.6150671 C0.342105263,16.6150671 0,17.000774 0,17.50516 C0,18.0095459 0.342105263,18.3952528 0.789473684,18.3952528 L7.76315789,18.3952528 C8.07894737,19.4336945 8.97368421,20.1754386 10,20.1754386 C11.0263158,20.1754386 11.8947368,19.4336945 12.2368421,18.3952528 L19.2105263,18.3952528 C19.6578947,18.3952528 20,18.0095459 20,17.50516 C20,17.000774 19.6578947,16.6150671 19.2105263,16.6150671 Z M10,18.9886481 C9.26315789,18.9886481 8.68421053,18.3359133 8.68421053,17.50516 C8.68421053,16.6744066 9.26315789,16.0216718 10,16.0216718 C10.7368421,16.0216718 11.3157895,16.6744066 11.3157895,17.50516 C11.3157895,18.3359133 10.7368421,18.9886481 10,18.9886481 Z" id="Shape"></path>
            </g>
        </g>
    </g>
</svg>