<?xml version="1.0" encoding="UTF-8"?>
<svg width="90px" height="70px" viewBox="0 0 90 70" version="1.1" xmlns="http://www.w3.org/2000/svg" xmlns:xlink="http://www.w3.org/1999/xlink">
    <!-- Generator: Sketch 50.2 (55047) - http://www.bohemiancoding.com/sketch -->
    <title>Shape</title>
    <desc>Created with Sketch.</desc>
    <defs></defs>
    <g id="Page-1" stroke="none" stroke-width="1" fill="none" fill-rule="evenodd">
        <g id="fleche-suivant" transform="translate(-1.000000, 0.000000)" fill="#0585BC" fill-rule="nonzero">
            <g id="noun_60380_cc" transform="translate(45.500000, 35.000000) rotate(180.000000) translate(-45.500000, -35.000000) translate(-0.000000, 0.000000)">
                <path d="M2.2,40.3 L29.7,67.8 C32.6,70.7 37.4,70.7 40.3,67.8 C43.2,64.9 43.2,60.1 40.3,57.2 L25.6,42.5 L82.5,42.5 C86.6,42.5 90,39.1 90,35 C90,30.9 86.6,27.5 82.5,27.5 L25.6,27.5 L40.3,12.8 C43.2,9.9 43.2,5.1 40.3,2.2 C37.4,-0.7 32.6,-0.7 29.7,2.2 L2.2,29.7 C-0.7,32.6 -0.7,37.4 2.2,40.3 Z" id="Shape"></path>
            </g>
        </g>
    </g>
</svg>