<svg width="113" height="113" xmlns="http://www.w3.org/2000/svg">
  <g transform="translate(4 4)" fill="none" fill-rule="evenodd">
    <circle stroke="#333" stroke-width="7" cx="52.5" cy="52.5" r="52.5"/>
    <g transform="translate(16 25)" fill="#333" fill-rule="nonzero">
      <path d="M68.359 0h-38.41c-1.509 0-2.716 1.174-2.716 2.643V3.89H71V2.643A2.652 2.652 0 0 0 68.359 0zM27.233 36.316c0 1.532 1.207 2.758 2.716 2.758h11.923l-9.81 18.31h4.754l9.886-18.31h4.98l9.885 18.31h4.754l-9.96-18.31h11.922c1.51 0 2.717-1.226 2.717-2.758v-1.302H27.233v1.302zM50.262 17.562L33.49 19.095c-.683.92-1.746 1.533-2.96 1.533h-.38v13.413h36.96V5.836H30.227v7.51l20.035-.076v4.292z"/>
      <circle cx="11.185" cy="8.267" r="5.349"/>
      <path d="M30.064 19.376c.891 0 1.56-.61 1.782-1.45l15.812-1.449v-.915l-26.799.076c-.074 0-5.196-.076-5.567-.076h-1.188L12.1 19.528l.965.687-1.485 2.746-.594-4.5-.222-1.374H9.576l-.223 1.373-.594 4.501-1.484-2.746.965-.687-2.004-3.966h-.297C2.672 15.562 0 18.308 0 21.664v13.807c0 1.068.817 1.907 1.856 1.907 1.04 0 1.856-.839 1.856-1.907V21.588c0-.763.37-1.45.89-1.83V56.22c0 1.144.891 2.136 2.079 2.136 1.113 0 2.078-.915 2.078-2.136V38.6h2.673V56.22c0 1.144.89 2.136 2.078 2.136 1.114 0 2.079-.915 2.079-2.136V22.427l1.485-3.128H29.767l.297.077z"/>
    </g>
  </g>
</svg>
