<svg width="113" height="113" xmlns="http://www.w3.org/2000/svg">
  <g transform="translate(4 4)" fill="none" fill-rule="evenodd">
    <circle stroke="#333" stroke-width="7" cx="52.5" cy="52.5" r="52.5"/>
    <path d="M44.47 53.626a1.12 1.12 0 0 1-1.093 1.092H39.3a1.12 1.12 0 0 1-1.092-1.092v-4.078c0-.583.51-1.093 1.092-1.093h4.078c.583 0 1.093.51 1.093 1.093v4.078zm8.593-4.078a1.12 1.12 0 0 0-1.092-1.093h-4.079a1.12 1.12 0 0 0-1.092 1.093v4.078c0 .583.51 1.092 1.092 1.092h4.079a1.12 1.12 0 0 0 1.092-1.092v-4.078zm8.594 0a1.12 1.12 0 0 0-1.093-1.093h-4.151a1.12 1.12 0 0 0-1.092 1.093v4.078c0 .583.51 1.092 1.092 1.092h4.078a1.12 1.12 0 0 0 1.093-1.092v-4.078h.073zM44.47 57.85a1.12 1.12 0 0 0-1.093-1.092H39.3a1.12 1.12 0 0 0-1.092 1.092v4.078c0 .583.51 1.093 1.092 1.093h4.078a1.12 1.12 0 0 0 1.093-1.093V57.85zm8.593 0a1.12 1.12 0 0 0-1.092-1.092h-4.079A1.12 1.12 0 0 0 46.8 57.85v4.078c0 .583.51 1.093 1.092 1.093h4.079a1.12 1.12 0 0 0 1.092-1.093V57.85zm7.501-1.092h-4.151a1.12 1.12 0 0 0-1.092 1.092v4.078c0 .583.51 1.093 1.092 1.093h4.078a1.12 1.12 0 0 0 1.093-1.093V57.85c.073-.583-.437-1.092-1.02-1.092zm-25.78 8.375h-4.079a1.12 1.12 0 0 0-1.092 1.092v4.078c0 .583.51 1.093 1.092 1.093h4.079a1.12 1.12 0 0 0 1.092-1.093v-4.078c0-.583-.437-1.092-1.092-1.092zm1.092-7.283a1.12 1.12 0 0 0-1.092-1.092h-4.079a1.12 1.12 0 0 0-1.092 1.092v4.078c0 .583.51 1.093 1.092 1.093h4.079a1.12 1.12 0 0 0 1.092-1.093V57.85zm16.095 7.283h-4.079a1.12 1.12 0 0 0-1.092 1.092v4.078c0 .583.51 1.093 1.092 1.093h4.079a1.12 1.12 0 0 0 1.092-1.093v-4.078a1.12 1.12 0 0 0-1.092-1.092zm-8.594 0H39.3a1.12 1.12 0 0 0-1.092 1.092v4.078c0 .583.51 1.093 1.092 1.093h4.078a1.12 1.12 0 0 0 1.093-1.093v-4.078a1.12 1.12 0 0 0-1.093-1.092zm21.63-16.678a1.12 1.12 0 0 0-1.093 1.093v4.078c0 .583.51 1.092 1.093 1.092h4.078a1.12 1.12 0 0 0 1.092-1.092v-4.078a1.12 1.12 0 0 0-1.092-1.093h-4.078zm-44.57-14.2v39.617c0 3.568 2.913 6.408 6.409 6.408h31.17c-.51-1.602-.802-3.277-.802-4.952H26.918a1.46 1.46 0 0 1-1.456-1.456V44.596h48.866v13.691c1.748 0 3.423.291 4.952.728v-24.76c0-3.57-2.913-6.41-6.408-6.41h-7.21V23.84a2.3 2.3 0 0 0-2.33-2.33H59.69a2.3 2.3 0 0 0-2.33 2.33v4.006H42.503V23.84a2.3 2.3 0 0 0-2.33-2.33h-3.641a2.3 2.3 0 0 0-2.33 2.33v4.006h-7.21c-3.642 0-6.555 2.913-6.555 6.408zm66.126 40.928c0 6.772-5.535 12.307-12.308 12.307-6.772 0-12.307-5.535-12.307-12.307 0-6.773 5.535-12.308 12.307-12.308 6.773 0 12.308 5.535 12.308 12.308zm-6.117-2.695l-2.33-2.33-5.39 5.389-2.258-2.258-2.476 2.33 2.258 2.258 2.33 2.403 2.404-2.33 5.462-5.462z" fill="#333" fill-rule="nonzero"/>
  </g>
</svg>
