<svg width="113" height="113" xmlns="http://www.w3.org/2000/svg">
  <g transform="translate(4 4)" fill="none" fill-rule="evenodd">
    <circle stroke="#333" stroke-width="7" cx="52.5" cy="52.5" r="52.5"/>
    <g fill="#333" fill-rule="nonzero">
      <path d="M30.331 52.583c-.109-6.825-1.422-13.32-3.39-19.596-.548-1.651-1.204-3.193-1.75-4.844-.548-1.541-.33-2.092 1.093-2.422 11.377-2.752 22.863-4.294 34.568-3.523 6.235.33 12.252 1.541 18.159 3.523.656.22 1.312.88 1.64 1.431 3.939 8.808 6.126 18.165 6.345 27.743.11 9.138-2.188 17.725-6.344 25.872-.438.99-1.204.99-2.079.99H25.628c-1.532 0-2.188-.55-2.516-2.091-1.97-8.037-3.282-16.184-4.048-24.33-.219-2.643 0-2.863 2.626-2.863 2.734.11 5.578.11 8.641.11zm-2.297 26.642c.438.11.547.11.657.11h48.57c.656 0 1.53-.66 1.75-1.21 2.844-5.725 4.594-11.78 5.141-18.166.985-10.789-1.313-21.137-5.47-31.045-.218-.44-.765-.991-1.203-1.101-5.47-1.872-11.158-2.753-16.955-3.193-8.642-.55-17.284.22-25.817 1.762-2.297.44-4.594.99-7 1.54 7 17.285 6.781 34.24.327 51.303zm-7.11-24.11c1.312 8.037 2.516 15.854 3.72 23.78h.546c2.954-7.596 4.813-15.413 4.923-23.67-2.954-.11-5.798-.11-9.19-.11z"/>
      <path d="M34.413 35.565c.11 0 7.583-1.674 17.914-2.009-1.868.558-3.517 1.45-5.055 2.455-7.364.558-12.31 1.674-12.42 1.674-.549.111-1.208-.223-1.318-.781-.11-.67.33-1.228.88-1.34zM79.912 37.462c-.11.446-.55.78-.99.78h-.22a89.514 89.514 0 0 0-10.66-2.008 19.982 19.982 0 0 0-5.055-2.678c5.275.335 10.77 1.005 16.265 2.455.44.223.77.781.66 1.45zM40.458 56.206c.22.67.44 1.45.77 2.12-2.199.446-3.518.67-3.628.67h-.22c-.439 0-.879-.335-1.098-.893-.11-.558.22-1.228.769-1.34.11 0 1.319-.222 3.407-.557zM65.075 54.42c-.33.782-.77 1.451-1.429 2.12-4.395-.11-8.572.112-12.198.335-.55-.557-1.1-1.338-1.539-2.008 4.506-.446 9.671-.67 15.166-.446zM82.55 57.991c-.11.558-.77.893-1.32.781a88.457 88.457 0 0 0-7.143-1.339c.22-.67.44-1.339.66-2.12a77.99 77.99 0 0 1 7.033 1.34c.55.11.989.669.77 1.338zM36.392 45.941c.11 0 1.538-.335 4.066-.78-.22.78-.44 1.561-.55 2.342-1.868.335-2.967.558-3.077.558h-.22c-.44 0-.879-.335-1.099-.892 0-.447.33-1.116.88-1.228zM64.196 45.718c-4.945-.223-9.671 0-13.737.335.659-.893 1.428-1.785 2.307-2.343a76.435 76.435 0 0 1 8.902-.223 8.166 8.166 0 0 1 2.528 2.231zM81.89 47.057c-.11.67-.66 1.004-1.21.78-1.977-.445-3.846-.892-5.824-1.226l-.66-2.343a77.99 77.99 0 0 1 7.034 1.338c.44.335.88.893.66 1.45zM81.45 67.587c-.11.557-.77.892-1.319.78a71.785 71.785 0 0 0-13.627-2.008 11.848 11.848 0 0 0 2.637-2.008c3.737.335 7.693 1.004 11.43 1.897.66.223 1.099.78.88 1.339z"/>
      <g>
        <path d="M45.733 69.037l-4.506-4.017 2.528-3.012c.22-.223.55-.112.879.111l3.297 3.013c.33.335.44.67.22.893l-2.418 3.012zM38.26 73.054c-.66-.558-.99-1.228-1.1-2.009-.11-.78.11-1.45.55-2.008l.66-.67 4.506 4.017-.66.67c-.989 1.115-2.747 1.115-3.956 0zM40.238 66.136c.11 0 .33 0 .44.112l3.956 3.57c.11.112.22.223.11.446l-.33.447-.44.557c-.11 0-.33 0-.44-.111l-3.955-3.57c-.11-.112-.22-.224-.11-.335l.769-1.116z"/>
      </g>
      <path d="M57.492 66.248c-8.352 0-15.166-6.918-15.166-15.398s6.814-15.397 15.166-15.397 15.166 6.918 15.166 15.397c0 8.48-6.814 15.398-15.166 15.398zm0-26.667c-6.154 0-11.1 5.021-11.1 11.27 0 6.248 4.946 11.268 11.1 11.268s11.1-5.02 11.1-11.269c0-6.248-4.946-11.269-11.1-11.269z"/>
    </g>
  </g>
</svg>
