<svg width="113" height="113" xmlns="http://www.w3.org/2000/svg">
  <g transform="translate(4 4)" fill="none" fill-rule="evenodd">
    <circle stroke="#333" stroke-width="7" cx="52.5" cy="52.5" r="52.5"/>
    <g fill="#333" fill-rule="nonzero">
      <path d="M48.621 49.781c0 1.723-1.286 4.522-2.894 4.522-1.715 0-3.109-2.907-3.109-4.522a3.003 3.003 0 0 1 3.002-3.014c1.608 0 3.001 1.4 3.001 3.014zM50.444 69.483c0 .538.107 1.076.429 1.507-.108 6.782-.108 14.75-.108 14.964-.107 1.185-1.393 1.615-1.93 1.615-.964 0-1.822-.86-1.929-1.83-.107-.969-.429-10.55-.429-11.089 0-.323-.214-.538-.536-.538-.321 0-.536.215-.536.538 0 0 .108 10.874 0 11.197-.214 1.615-1.822 1.615-1.93 1.615-.106 0-1.5 0-1.822-1.508 0-.215-.75-13.564-.857-15.072v-.107c-.858 0-1.501-.646-1.501-1.4 0 0-.107-8.828-.107-9.043 0-1.184.107-2.584.965-3.553.428-.43 1.393-1.076 2.358-1.292.214-.107.429-.107.75-.107 1.287-.108 3.11-.216 5.039-.108.321 0 .536.108.965.215.643.216.964.323 1.286.539.214.107.429.323.643.538a5.643 5.643 0 0 0-.643 1.722c-.107.754-.214 1.508-.214 2.154 0 .215.107 6.997.107 8.827v.216zM35.865 49.781c0 1.723-1.287 4.522-2.895 4.522-1.715 0-3.109-2.907-3.109-4.522a3.003 3.003 0 0 1 3.002-3.014c1.715 0 3.002 1.4 3.002 3.014zM37.687 69.483c0 .538.214 1.184.429 1.615-.107 6.782-.107 14.641-.107 14.856-.108 1.185-1.394 1.615-1.93 1.615-.965 0-1.822-.86-1.93-1.83-.107-.969-.428-10.55-.428-11.089 0-.323-.215-.538-.536-.538-.322 0-.536.215-.536.538 0 0 .107 10.874 0 11.197-.215 1.615-1.823 1.615-1.93 1.615-.107 0-1.5 0-1.822-1.508 0-.215-.75-13.564-.858-15.072v-.107c-.75 0-1.5-.646-1.5-1.4 0 0-.108-8.828-.108-9.043 0-1.184.107-2.584.965-3.553.429-.43 1.393-1.076 2.358-1.292.215-.107.429-.107.75-.107h.43c1.071-.108 2.465-.216 4.073-.108h.536c.322 0 .536.108.965.215.643.216.965.323 1.286.539.215.107.429.323.643.43a4.769 4.769 0 0 0-.643 1.723c-.214.753-.214 1.507-.214 2.26 0 .216.107 6.998.107 8.828v.216zM61.378 49.781c0 1.723-1.286 4.522-2.894 4.522-1.715 0-3.11-2.907-3.11-4.522a3.003 3.003 0 0 1 3.003-3.014c1.608 0 3.001 1.4 3.001 3.014zM65.345 60.224V62.7c-.108 2.692-.108 6.567-.108 6.567 0 .754-.643 1.4-1.393 1.4-.107 6.783-.107 14.965-.107 15.18-.108 1.184-1.394 1.615-1.93 1.615-.965 0-1.822-.862-1.93-1.83-.107-.97-.428-10.551-.428-11.09 0-.322-.215-.538-.536-.538-.322 0-.536.216-.536.539 0 0 .107 10.873 0 11.196-.215 1.615-1.823 1.615-1.93 1.615-.107 0-1.5 0-1.822-1.507 0-.215-.75-13.565-.858-15.072v-.108c-.858 0-1.5-.646-1.5-1.4 0 0-.108-8.827-.108-9.043 0-1.184.107-2.584.965-3.553.429-.43 1.393-1.076 2.358-1.291.215-.108.429-.108.75-.108 1.287-.108 3.11-.215 5.039-.108.322 0 .536.108.965.216.643.215.965.323 1.286.538 1.18.646 1.93 1.938 2.037 3.23-.214.43-.214.753-.214 1.076zM74.242 49.781c0 1.723-1.286 4.522-2.894 4.522-1.715 0-3.11-2.907-3.11-4.522a3.003 3.003 0 0 1 3.003-3.014c1.715 0 3.108 1.4 3.001 3.014zM78.209 60.224V62.7c-.108 2.8-.108 6.675-.108 6.675 0 .754-.643 1.4-1.393 1.4-.107 6.782-.107 14.964-.107 15.18-.108 1.184-1.394 1.614-1.93 1.614-.965 0-1.822-.86-1.93-1.83-.107-.969-.428-10.55-.428-11.089 0-.323-.215-.538-.536-.538-.322 0-.536.215-.536.538 0 0 .107 10.874 0 11.197-.215 1.615-1.823 1.615-1.93 1.615-.107 0-1.5 0-1.822-1.508 0-.215-.75-13.564-.858-15.072v-.107h-.214c.214-.43.428-.97.428-1.508v-.107c0-.754.108-4.091.108-6.46v-2.476-1.184c0-.215-.108-.43-.108-.646a4.769 4.769 0 0 0-.643-1.723c.536-.43 1.394-.86 2.144-1.076.215-.108.429-.108.75-.108h.43c1.071-.107 2.465-.215 4.073-.107h.536c.322 0 .536.107.965.215.643.215.965.323 1.286.538 1.18.646 1.93 1.938 2.037 3.23-.214.215-.107.538-.214.861zM61.693 41.524l-5.401-1.851c.212-1.525.106-3.16-.636-4.575-1.8-3.812-6.249-5.337-9.85-3.486-3.706 1.852-5.19 6.427-3.389 10.13 1.8 3.812 6.25 5.337 9.85 3.486 1.483-.763 2.542-1.852 3.177-3.268l5.402 1.852c.212 0 .424 0 .635-.11.318-.108.53-.435.636-.762.212-.435 0-1.089-.424-1.416zm-10.167 2.07c-2.754 1.416-6.037.218-7.414-2.614-1.377-2.832-.212-6.209 2.542-7.625 2.753-1.416 6.037-.218 7.414 2.614 1.27 2.832.211 6.209-2.542 7.625z"/>
      <path d="M78.75 21H26.1c-2.266 0-4.1 1.856-4.1 4.148v25.65c0 2.293 1.834 4.149 4.1 4.149h.863c.647-.437 1.51-.874 2.374-1.201.107 0 .107 0 .215-.11-.54-.872-1.079-1.855-1.294-2.837H26.1V25.148h52.65v25.65h-2.805c-.216.874-.54 1.856-1.079 2.73.216 0 .432.109.648.218.755.218 1.186.437 1.618.655.324.11.54.327.755.546h.755c2.266 0 4.1-1.856 4.1-4.148V25.148C82.85 22.856 81.016 21 78.75 21z"/>
    </g>
  </g>
</svg>
