<svg width="113" height="113" xmlns="http://www.w3.org/2000/svg">
  <g transform="translate(4 4)" fill="none" fill-rule="evenodd">
    <circle stroke="#333" stroke-width="7" cx="52.5" cy="52.5" r="52.5"/>
    <g fill="#333" fill-rule="nonzero">
      <path d="M82.671 48.886h-4.336V38.21v-.26c0-.26-.255-.52-.51-.781l-14.54-14.84c-.256 0-.256-.26-.51-.26h-.256H25.02c-.51-.261-1.02.26-1.02.78v56.758c0 2.603 2.04 4.426 4.337 4.426H80.63c2.55 0 4.336-2.083 4.336-4.426V51.75c.255-1.302-1.02-2.604-2.296-2.864zM63.54 25.454L74.763 36.91H63.54V25.454zM28.592 82.21c-1.276 0-2.296-1.041-2.296-2.343V23.892h35.458V37.95c0 .52.51 1.041 1.02 1.041H76.55v40.616c0 .78.255 1.822.765 2.343H28.592v.26zm49.743-29.68v-1.562h1.275v24.213h-1.02V52.53h-.255zm4.847 27.077c0 1.302-1.02 2.343-2.296 2.343-1.276 0-2.296-1.041-2.296-2.343v-2.343h2.04c.51 0 1.021-.521 1.021-1.042V51.75c0-.52.255-.781.765-.781s.766.26.766.78v27.859z"/>
      <path d="M30.648 36.316h25.18c.51 0 1.018-.527 1.018-1.054v-5.528c0-.527-.509-1.053-1.017-1.053h-25.18c-.51 0-1.018.526-1.018 1.053v5.528c0 .527.508 1.054 1.017 1.054zm1.018-5.53H54.81v3.687H31.666v-3.686zM70.862 64.947H30.63c-.5 0-1 .477-1 .954s.5.954 1 .954h40.232c.5 0 1-.477 1-.954s-.25-.954-1-.954zM30.663 60.175h18.582c.516 0 1.032-.519 1.032-1.037V40.215c0-.518-.516-1.036-1.032-1.036H30.663c-.516 0-1.032.518-1.032 1.036V58.88c0 .777.516 1.296 1.032 1.296zm1.032-18.923h16.517v16.59H31.695v-16.59zM71.768 50.631H53.186c-.516 0-1.032.477-1.032.954 0 .478.516.955 1.032.955h18.582c.516 0 1.032-.477 1.032-.955 0-.477-.258-.954-1.032-.954zM71.768 45.86H53.186c-.516 0-1.032.476-1.032.954 0 .477.516.954 1.032.954h18.582c.516 0 1.032-.477 1.032-.954 0-.478-.258-.955-1.032-.955zM71.768 71.627H53.186c-.516 0-1.032.477-1.032.954 0 .478.516.955 1.032.955h18.582c.516 0 1.032-.477 1.032-.955 0-.477-.258-.954-1.032-.954zM71.768 75.445H53.186c-.516 0-1.032.477-1.032.954s.516.954 1.032.954h18.582c.516 0 1.032-.477 1.032-.954s-.258-.954-1.032-.954zM49.245 71.627H30.663c-.516 0-1.032.477-1.032.954 0 .478.516.955 1.032.955h18.582c.516 0 1.032-.477 1.032-.955 0-.477-.258-.954-1.032-.954zM49.245 75.445H30.663c-.516 0-1.032.477-1.032.954s.516.954 1.032.954h18.582c.516 0 1.032-.477 1.032-.954s-.258-.954-1.032-.954zM61.494 59.22h-8.357c-.492 0-.983.478-.983.955s.491.954.983.954h8.357c.491 0 .983-.477.983-.954s-.492-.955-.983-.955zM61.494 55.403h-8.357c-.492 0-.983.477-.983.954s.491.955.983.955h8.357c.491 0 .983-.478.983-.955s-.492-.954-.983-.954z"/>
      <path d="M41.48 50.478c-.243 0-.486-.246-.486-.246.73-.74 1.217-1.724 1.46-2.955 0-1.232-.243-2.217-.973-2.956-1.218-1.723-3.653-1.723-4.87-.246-.73.985-.974 1.97-.974 3.202.243 1.477.73 2.462 1.46 2.955-.73.246-2.921 1.477-3.408 2.462-.487.985-.244 1.724-.244 1.97 0 .493.487.739.974.739h9.253c.487 0 .974-.493.974-.985 0 0 0-.739-.243-1.478 0-.985-1.218-1.723-2.922-2.462zm-3.408-5.172c.243-.246.73-.246.974-.246.243 0 .73 0 .974.493.243.246.487.739.487 1.477 0 .493-.487 2.217-1.461 2.217-.974 0-1.218-1.724-1.461-2.217 0-.738.243-1.231.487-1.724zm-2.435 8.127c.487-.493 1.46-.985 2.191-1.231.73.246 1.705.246 2.435 0 .244 0 .244.246.487.246.487.246 1.705.985 1.948.985h-7.061z"/>
    </g>
  </g>
</svg>
