<?xml version="1.0" encoding="utf-8"?>
<!-- Generator: Adobe Illustrator 22.0.1, SVG Export Plug-In . SVG Version: 6.00 Build 0)  -->
<svg version="1.1" id="Calque_1" xmlns="http://www.w3.org/2000/svg" xmlns:xlink="http://www.w3.org/1999/xlink" x="0px" y="0px"
	 viewBox="0 0 1280 1024" enable-background="new 0 0 1280 1024" xml:space="preserve">
<g>
	<g>
		<polygon points="896.857,585 945,505.828 903.212,423.125 936.007,505.474 		"/>
	</g>
	<g>
		<linearGradient id="SVGID_1_" gradientUnits="userSpaceOnUse" x1="585" y1="502.7414" x2="870.2939" y2="502.7414">
			<stop  offset="0.3862" style="stop-color:#000000"/>
			<stop  offset="0.4023" style="stop-color:#080808"/>
			<stop  offset="0.5743" style="stop-color:#5F5F5F"/>
			<stop  offset="0.7259" style="stop-color:#A3A3A3"/>
			<stop  offset="0.8516" style="stop-color:#D5D5D5"/>
			<stop  offset="0.9467" style="stop-color:#F4F4F4"/>
			<stop  offset="1" style="stop-color:#FFFFFF"/>
		</linearGradient>
		<path fill="url(#SVGID_1_)" d="M870.294,484.643c0-1.302-0.023-2.625-0.065-3.963c-0.002-0.05-0.003-0.1-0.005-0.15
			c-0.043-1.333-0.108-2.682-0.195-4.045c0-0.001,0-0.001,0-0.002C867.742,440.818,849.932,396,794.09,396
			c-28.933,0-51.782,12.254-66.714,32.926c-10.694-19.049-30.068-32.854-63.321-32.854c-24.477,0-47.769,10.757-64.038,21.14
			c-0.445,0.284-0.633,0.839-0.461,1.339l7.388,21.554c0.239,0.698,1.059,0.983,1.686,0.592
			c13.747-8.57,33.322-17.981,51.128-17.981c40.342,0,43.825,33.512,43.825,49.909v2.956c0,0.378-0.197,0.696-0.482,0.903
			c-0.091,0.066-0.19,0.121-0.295,0.162c-0.118,0.041-0.24,0.074-0.372,0.074c-1.272-0.002-2.534,0.004-3.787,0.017
			c-0.406,0.004-0.806,0.012-1.21,0.018c-0.845,0.012-1.688,0.025-2.524,0.044c-0.471,0.011-0.939,0.024-1.408,0.037
			c-0.768,0.021-1.533,0.043-2.293,0.07c-0.479,0.017-0.956,0.035-1.432,0.054c-0.749,0.03-1.494,0.063-2.236,0.099
			c-0.463,0.022-0.925,0.045-1.384,0.069c-0.769,0.041-1.532,0.086-2.293,0.133c-0.418,0.026-0.837,0.05-1.253,0.078
			c-0.859,0.057-1.709,0.121-2.558,0.186c-0.306,0.024-0.615,0.045-0.92,0.069c-2.326,0.188-4.611,0.406-6.856,0.654
			c-0.274,0.03-0.544,0.064-0.817,0.095c-0.842,0.096-1.68,0.195-2.511,0.3c-0.334,0.042-0.666,0.087-0.998,0.13
			c-0.768,0.1-1.532,0.204-2.29,0.311c-0.342,0.049-0.682,0.098-1.021,0.148c-0.757,0.112-1.51,0.227-2.257,0.346
			c-0.313,0.05-0.626,0.099-0.937,0.15c-0.8,0.131-1.594,0.268-2.382,0.408c-0.245,0.043-0.492,0.086-0.735,0.13
			c-0.96,0.174-1.912,0.355-2.854,0.542c-0.063,0.013-0.128,0.024-0.191,0.037c-2.094,0.418-4.143,0.868-6.149,1.349
			c-0.095,0.023-0.187,0.047-0.282,0.069c-0.88,0.213-1.752,0.431-2.616,0.656c-0.175,0.046-0.348,0.092-0.522,0.138
			c-0.789,0.208-1.571,0.422-2.346,0.64c-0.185,0.052-0.369,0.105-0.552,0.157c-0.779,0.223-1.55,0.452-2.314,0.685
			c-0.153,0.047-0.307,0.093-0.459,0.14c-0.833,0.258-1.657,0.522-2.472,0.792c-0.071,0.024-0.144,0.047-0.215,0.07
			c-3.659,1.22-7.134,2.564-10.425,4.03c-0.051,0.023-0.101,0.046-0.152,0.068c-0.764,0.342-1.517,0.69-2.261,1.045
			c-0.068,0.033-0.137,0.065-0.205,0.098c-0.747,0.358-1.483,0.723-2.21,1.095c-0.039,0.02-0.079,0.04-0.118,0.06
			c-4.673,2.399-8.92,5.075-12.733,8.019c-0.019,0.014-0.037,0.029-0.056,0.043C593.32,512.291,585,529.266,585,550.506
			c0,28.694,26.358,58.977,66.294,58.977c39.362,0,57.434-12.61,75.159-40.669c15.518,24.588,40.101,40.598,71.828,40.598
			c29.338,0,54.013-18.929,64.343-26.322l-10.714-21.875c-11.617,6.268-26.055,19.268-50.058,19.268
			c-33.528,0-61.485-30.126-62.248-79H869.15C869.531,497.786,870.294,492.036,870.294,484.643z M704.397,536.159
			c0,3.69-0.815,7.788-2.037,11.478c-5.706,16.806-22.005,32.202-47.678,32.202c-18.337,0-33.822-10.067-33.822-33.432
			c0-38.163,43.572-45.363,82.414-44.701c0.624,0.011,1.123,0.523,1.123,1.147V536.159z M837.907,476.483h-97.921
			c2.667-25.053,17.526-54.731,51.437-54.731C829.144,421.751,838.287,453.483,837.907,476.483z"/>
	</g>
	<g>
		<polygon points="567,604.914 610.511,686.723 702.959,693 615.405,679.17 		"/>
	</g>
	<g>
		<polygon points="719.514,326.29 626.882,324 576,401.44 631.057,331.973 		"/>
	</g>
</g>
</svg>
