<?xml version="1.0" encoding="UTF-8"?>
<svg width="378px" height="369px" viewBox="0 0 378 369" version="1.1" xmlns="http://www.w3.org/2000/svg" xmlns:xlink="http://www.w3.org/1999/xlink">
    <!-- Generator: Sketch 50.2 (55047) - http://www.bohemiancoding.com/sketch -->
    <title>logo-acteur-whb</title>
    <desc>Created with Sketch.</desc>
    <defs></defs>
    <g id="Page-1" stroke="none" stroke-width="1" fill="none" fill-rule="evenodd">
        <g id="logo-acteur-whb" fill-rule="nonzero">
            <polygon id="Shape" fill="#000000" points="329.9 261 378 181.8 336.2 99.1 369 181.5"></polygon>
            <path d="M313.3,160.6 C313.3,159.3 313.3,158 313.2,156.6 C313.2,156.6 313.2,156.5 313.2,156.5 C313.2,155.2 313.1,153.8 313,152.5 C313,152.5 313,152.5 313,152.5 C310.7,116.8 292.9,72 237.1,72 C208.2,72 185.3,84.3 170.4,104.9 C159.7,85.9 140.3,72 107.1,72 C82.6,72 59.3,82.8 43.1,93.1 C42.7,93.4 42.5,93.9 42.6,94.4 L50,116 C50.2,116.7 51.1,117 51.7,116.6 C65.4,108 85,98.6 102.8,98.6 C143.1,98.6 146.6,132.1 146.6,148.5 L146.6,151.5 C146.6,151.9 146.4,152.2 146.1,152.4 C146,152.5 145.9,152.5 145.8,152.6 C145.7,152.6 145.6,152.7 145.4,152.7 C144.1,152.7 142.9,152.7 141.6,152.7 C141.2,152.7 140.8,152.7 140.4,152.7 C139.6,152.7 138.7,152.7 137.9,152.7 C137.4,152.7 137,152.7 136.5,152.7 C135.7,152.7 135,152.7 134.2,152.8 C133.7,152.8 133.2,152.8 132.8,152.9 C132.1,152.9 131.3,153 130.6,153 C130.1,153 129.7,153 129.2,153.1 C128.4,153.1 127.7,153.2 126.9,153.2 C126.5,153.2 126.1,153.2 125.6,153.3 C124.7,153.4 123.9,153.4 123,153.5 C122.7,153.5 122.4,153.5 122.1,153.6 C119.8,153.8 117.5,154 115.2,154.3 C114.9,154.3 114.7,154.4 114.4,154.4 C113.6,154.5 112.7,154.6 111.9,154.7 C111.6,154.7 111.2,154.8 110.9,154.8 C110.1,154.9 109.4,155 108.6,155.1 C108.3,155.1 107.9,155.2 107.6,155.2 C106.8,155.3 106.1,155.4 105.3,155.5 C105,155.5 104.7,155.6 104.4,155.6 C103.6,155.7 102.8,155.9 102,156 C101.8,156 101.5,156.1 101.3,156.1 C100.3,156.3 99.4,156.5 98.4,156.6 C98.3,156.6 98.3,156.6 98.2,156.6 C96.1,157 94.1,157.5 92.1,157.9 C92,157.9 91.9,157.9 91.8,158 C90.9,158.2 90,158.4 89.2,158.7 C89,158.7 88.9,158.8 88.7,158.8 C87.9,159 87.1,159.2 86.4,159.4 C86.2,159.5 86,159.5 85.8,159.6 C85,159.8 84.3,160.1 83.5,160.3 C83.3,160.3 83.2,160.4 83,160.4 C82.2,160.7 81.3,160.9 80.5,161.2 C80.4,161.2 80.4,161.2 80.3,161.3 C76.6,162.5 73.2,163.9 69.9,165.3 C69.8,165.3 69.8,165.3 69.7,165.4 C68.9,165.7 68.2,166.1 67.4,166.4 C67.3,166.4 67.3,166.5 67.2,166.5 C66.5,166.9 65.7,167.2 65,167.6 C65,167.6 64.9,167.6 64.9,167.7 C60.2,170.1 56,172.8 52.2,175.7 C52.2,175.7 52.2,175.7 52.1,175.7 C36.2,188 27.9,205 27.9,226.2 C27.9,254.9 54.3,285.2 94.2,285.2 C133.6,285.2 151.6,272.6 169.4,244.5 C184.9,269.1 209.5,285.1 241.2,285.1 C270.5,285.1 295.2,266.2 305.5,258.8 L294.8,236.9 C283.2,243.2 268.7,256.2 244.7,256.2 C211.2,256.2 183.2,226.1 182.5,177.2 L312,177.2 C312.5,173.8 313.3,168 313.3,160.6 Z M147.4,212.2 C147.4,215.9 146.6,220 145.4,223.7 C139.7,240.5 123.4,255.9 97.7,255.9 C79.4,255.9 63.9,245.8 63.9,222.5 C63.9,184.3 107.5,177.1 146.3,177.8 C146.9,177.8 147.4,178.3 147.4,178.9 L147.4,212.2 Z M280.9,152.5 L183,152.5 C185.7,127.4 200.5,97.8 234.4,97.8 C272.1,97.8 281.3,129.5 280.9,152.5 Z" id="Shape" fill="#FFFFFF"></path>
            <polygon id="Shape" fill="#000000" points="0 280.9 43.5 362.7 136 369 48.4 355.2"></polygon>
            <polygon id="Shape" fill="#000000" points="152.5 2.3 59.9 0 9 77.4 64.1 8"></polygon>
        </g>
    </g>
</svg>