<?xml version="1.0" encoding="UTF-8"?>
<svg width="19px" height="19px" viewBox="0 0 19 19" version="1.1" xmlns="http://www.w3.org/2000/svg" xmlns:xlink="http://www.w3.org/1999/xlink">
    <!-- Generator: Sketch 50.2 (55047) - http://www.bohemiancoding.com/sketch -->
    <title>noun_1106813_cc</title>
    <desc>Created with Sketch.</desc>
    <defs></defs>
    <g id="symbols" stroke="none" stroke-width="1" fill="none" fill-rule="evenodd">
        <g id="bouton-modifier" transform="translate(-13.000000, -8.000000)" fill="#333333" fill-rule="nonzero">
            <g id="noun_1106813_cc" transform="translate(13.000000, 8.000000)">
                <path d="M18.7871376,4.33835137 L14.6588967,0.212727482 C14.3750801,-0.0709091606 13.8848515,-0.0709091606 13.6010349,0.212727482 L1.60333484,12.2028219 C1.60333484,12.2028219 1.60333484,12.2028219 1.57753333,12.2286071 C1.55173182,12.2801774 1.50012881,12.3059625 1.47432731,12.3575328 C1.47432731,12.383318 1.4485258,12.383318 1.4485258,12.4091031 C1.4227243,12.4606734 1.4227243,12.4864586 1.39692279,12.5380289 L1.39692279,12.563814 L0.0294429926,18.0560508 C-0.0479615242,18.3139023 0.0294429926,18.5975389 0.235855038,18.778035 C0.416465577,18.958531 0.700282139,19.0358865 0.958297195,18.9843162 L6.40241488,17.6177033 C6.55722391,17.5919181 6.71203295,17.5145627 6.81523897,17.4114221 L18.7871376,5.39554249 C19.0709541,5.11190585 19.0709541,4.62198801 18.7871376,4.33835137 Z M5.65417122,13.3373685 C5.93798778,13.6210051 6.42821639,13.6210051 6.71203295,13.3373685 L13.5494319,6.50430391 L14.5556907,7.50992474 L6.27340735,15.7869577 L3.20302818,12.74431 L11.4853115,4.46727712 L12.4657687,5.44711279 L5.65417122,12.2801774 C5.37035466,12.563814 5.37035466,13.0537318 5.65417122,13.3373685 Z M17.1874442,4.87983951 L15.6393539,6.42694847 L12.5689747,3.38430085 L14.1170651,1.83719189 L17.1874442,4.87983951 Z M1.78394537,17.2051409 L2.53218904,14.2140636 L4.77692003,16.4573715 L1.78394537,17.2051409 Z" id="Shape"></path>
            </g>
        </g>
    </g>
</svg>