<svg xmlns="http://www.w3.org/2000/svg" viewBox="0 0 96 120" fill="none" x="0px" y="0px"><path d="M6 3.5C6 3.15479 6.27979 2.875 6.625 2.875H12.625C12.9702 2.875 13.25 3.15479 13.25 3.5C13.25 3.84521 12.9702 4.125 12.625 4.125H6.625C6.27979 4.125 6 3.84521 6 3.5Z" transform="translate(15.5 16) scale(4)" fill="black"/><path d="M6 6.5C6 6.15479 6.27979 5.875 6.625 5.875H12.625C12.9702 5.875 13.25 6.15479 13.25 6.5C13.25 6.84521 12.9702 7.125 12.625 7.125H6.625C6.27979 7.125 6 6.84521 6 6.5Z" transform="translate(15.5 16) scale(4)" fill="black"/><path d="M6.625 8.875C6.27979 8.875 6 9.15479 6 9.5C6 9.84521 6.27979 10.125 6.625 10.125H12.625C12.9702 10.125 13.25 9.84521 13.25 9.5C13.25 9.15479 12.9702 8.875 12.625 8.875H6.625Z" transform="translate(15.5 16) scale(4)" fill="black"/><path d="M6 12.5C6 12.1548 6.27979 11.875 6.625 11.875H12.625C12.9702 11.875 13.25 12.1548 13.25 12.5C13.25 12.8452 12.9702 13.125 12.625 13.125H6.625C6.27979 13.125 6 12.8452 6 12.5Z" transform="translate(15.5 16) scale(4)" fill="black"/><path fill-rule="evenodd" clip-rule="evenodd" d="M3 2.125C3 0.95166 3.95142 0 5.125 0H16.25V13.8799C16.25 15.0532 15.2986 16 14.125 16H2.125C0.951416 16 0 15.0532 0 13.8799V6H3V2.125ZM5.125 1.25C4.64185 1.25 4.25 1.6416 4.25 2.125V13.8799C4.25 14.1914 4.18286 14.4829 4.06201 14.75H14.125C14.6082 14.75 15 14.3633 15 13.8799V1.25H5.125ZM1.25 7.25V13.8799C1.25 14.3633 1.64185 14.75 2.125 14.75C2.60815 14.75 3 14.3633 3 13.8799V7.25H1.25Z" transform="translate(15.5 16) scale(4)" fill="black"/><text x="0" y="111" fill="#000000" font-size="5px" font-weight="bold" font-family="'Helvetica Neue', Helvetica, Arial-Unicode, Arial, Sans-serif">Created by Joyce Lau</text><text x="0" y="116" fill="#000000" font-size="5px" font-weight="bold" font-family="'Helvetica Neue', Helvetica, Arial-Unicode, Arial, Sans-serif">from the Noun Project</text></svg>