<?xml version="1.0" encoding="UTF-8"?>
<svg width="26px" height="26px" viewBox="0 0 26 26" version="1.1" xmlns="http://www.w3.org/2000/svg" xmlns:xlink="http://www.w3.org/1999/xlink">
    <!-- Generator: Sketch 50.2 (55047) - http://www.bohemiancoding.com/sketch -->
    <title>noun_250246_cc</title>
    <desc>Created with Sketch.</desc>
    <defs></defs>
    <g id="Page-1" stroke="none" stroke-width="1" fill="none" fill-rule="evenodd">
        <g id="Desktop-HD-Annuaire-des-utilisateurs" transform="translate(-901.000000, -602.000000)" fill="#000000" fill-rule="nonzero">
            <g id="noun_250246_cc" transform="translate(901.000000, 602.000000)">
                <path d="M13,0 C5.82045455,0 0,5.82015909 0,13 C0,20.1798409 5.82045455,26 13,26 C20.1795455,26 26,20.1798409 26,13 C26,5.82015909 20.1795455,0 13,0 Z M13,23.6363636 C7.12577273,23.6363636 2.36363636,18.8742273 2.36363636,13 C2.36363636,7.12577273 7.12577273,2.36363636 13,2.36363636 C18.8742273,2.36363636 23.6363636,7.12577273 23.6363636,13 C23.6363636,18.8742273 18.8742273,23.6363636 13,23.6363636 Z M17.7272727,11.8181818 L14.1818182,11.8181818 L14.1818182,8.27272727 C14.1818182,7.62006818 13.6526591,7.09090909 13,7.09090909 C12.3473409,7.09090909 11.8181818,7.62006818 11.8181818,8.27272727 L11.8181818,11.8181818 L8.27272727,11.8181818 C7.62006818,11.8181818 7.09090909,12.3473409 7.09090909,13 C7.09090909,13.6526591 7.62006818,14.1818182 8.27272727,14.1818182 L11.8181818,14.1818182 L11.8181818,17.7272727 C11.8181818,18.3799318 12.3473409,18.9090909 13,18.9090909 C13.6526591,18.9090909 14.1818182,18.3799318 14.1818182,17.7272727 L14.1818182,14.1818182 L17.7272727,14.1818182 C18.3799318,14.1818182 18.9090909,13.6526591 18.9090909,13 C18.9090909,12.3473409 18.3799318,11.8181818 17.7272727,11.8181818 Z" id="Shape"></path>
            </g>
        </g>
    </g>
</svg>