<?xml version="1.0" encoding="UTF-8"?>
<svg width="21px" height="14px" viewBox="0 0 21 14" version="1.1" xmlns="http://www.w3.org/2000/svg" xmlns:xlink="http://www.w3.org/1999/xlink">
    <!-- Generator: Sketch 50.2 (55047) - http://www.bohemiancoding.com/sketch -->
    <title>reply</title>
    <desc>Created with Sketch.</desc>
    <defs></defs>
    <g id="symbols" stroke="none" stroke-width="1" fill="none" fill-rule="evenodd">
        <g id="bouton-répondre" transform="translate(-12.000000, -12.000000)" fill="#FFFFFF" fill-rule="nonzero">
            <g id="reply" transform="translate(22.500000, 19.000000) scale(1, -1) translate(-22.500000, -19.000000) translate(12.000000, 12.000000)">
                <path d="M0.134848111,12.6551408 C3.49567795,3.40628441 12.9246728,3.54784853 12.9246728,3.54784853 C12.9246728,3.54784853 12.8546555,2.69846376 12.8546555,1.25922846 C12.7846382,-0.227194886 13.3914547,-0.29797695 14.4183749,0.527813798 C16.8456409,2.53330561 21,6.47350718 21,6.47350718 C21,6.47350718 17.0790319,10.4137088 14.8151395,12.6787348 C13.718202,13.7640598 12.971351,14.1415641 12.9246728,12.1360723 C12.8313164,10.673243 12.9246728,9.44635388 12.9246728,9.44635388 C12.9246728,9.44635388 7.13657693,8.478999 3.05223512,11.5934098 C0.67164732,13.1742093 0.344899975,13.8112478 0.134848111,14 C0.134848111,14 -0.168560138,13.8112478 0.134848111,12.6551408 Z" id="Shape"></path>
            </g>
        </g>
    </g>
</svg>