<?xml version="1.0" encoding="UTF-8"?>
<svg width="24px" height="24px" viewBox="0 0 24 24" version="1.1" xmlns="http://www.w3.org/2000/svg" xmlns:xlink="http://www.w3.org/1999/xlink">
    <!-- Generator: Sketch 50.2 (55047) - http://www.bohemiancoding.com/sketch -->
    <title>Group 2</title>
    <desc>Created with Sketch.</desc>
    <defs></defs>
    <g id="symbols" stroke="none" stroke-width="1" fill="none" fill-rule="evenodd">
        <g id="Header-menu-annuaire" transform="translate(-1244.000000, -166.000000)" fill="#FFFFFF" fill-rule="nonzero">
            <g id="Group-2" transform="translate(1244.000000, 166.000000)">
                <g id="noun_Loupe_1713458" transform="translate(12.000000, 12.000000) rotate(90.000000) translate(-12.000000, -12.000000) translate(0.000000, -0.000000)">
                    <g id="Group">
                        <path d="M23.1873978,21.2883856 L16.7802337,14.8812216 C16.2191191,15.7136467 15.4945757,16.4232629 14.6506517,16.9669294 L21.0797663,23.3960171 C21.6619971,23.9767121 22.6045435,23.9760897 23.1860069,23.3946263 C23.7674704,22.8131628 23.7680928,21.8706165 23.1873978,21.2883856 Z" id="Shape"></path>
                        <path d="M16.2417708,13.8279182 C18.770468,10.0570865 18.038014,4.98474775 14.5458345,2.08334053 C11.0536551,-0.818066689 5.93298456,-0.608678981 2.68934875,2.56816032 C-0.554287055,5.74499961 -0.870165451,10.8602054 1.95795865,14.411993 C4.78608276,17.9637806 9.84208485,18.8016066 13.6647101,16.3519092 C14.6859719,15.694005 15.5627615,14.8352711 16.2417708,13.8279182 Z M12.1425438,14.8297699 C9.1610182,16.4678744 5.42761645,15.6492624 3.40504283,12.9139238 C1.38246922,10.1785851 1.69381512,6.36919175 4.13370406,3.99857507 C6.573593,1.62795838 10.3903719,1.42643091 13.0663374,3.52692841 C15.742303,5.6274259 16.4530744,9.38285108 14.7297978,12.3159721 C14.1119069,13.3734996 13.2174246,14.2425862 12.1425438,14.8297699 Z" id="Shape"></path>
                    </g>
                </g>
            </g>
        </g>
    </g>
</svg>