<?xml version="1.0" encoding="UTF-8"?>
<svg width="15px" height="15px" viewBox="0 0 15 15" version="1.1" xmlns="http://www.w3.org/2000/svg" xmlns:xlink="http://www.w3.org/1999/xlink">
    <!-- Generator: Sketch 50.2 (55047) - http://www.bohemiancoding.com/sketch -->
    <title>noun_662132_cc</title>
    <desc>Created with Sketch.</desc>
    <defs></defs>
    <g id="Page-1" stroke="none" stroke-width="1" fill="none" fill-rule="evenodd">
        <g id="Desktop-HD-Actualités" transform="translate(-153.000000, -998.000000)" fill="#26529B" fill-rule="nonzero">
            <g id="noun_662132_cc" transform="translate(160.500000, 1005.500000) rotate(90.000000) translate(-160.500000, -1005.500000) translate(153.000000, 998.000000)">
                <path d="M14.55,7.9 C12.25,5.6 9.96666667,3.3 7.65,1.01666667 C6.98333333,0.333333333 6.15,0 5.18333333,0 C3.96666667,0 2.73333333,0 1.51666667,0 C0.5,0 0,0.483333333 0,1.48333333 C0,2.1 0,2.73333333 0,3.35 C0,4 0,4.65 0,5.28333333 C0.0166666667,6.16666667 0.316666667,6.93333333 0.933333333,7.56666667 C3.25,9.9 5.56666667,12.2166667 7.88333333,14.5333333 C8.46666667,15.1166667 9.21666667,15.15 9.8,14.5666667 C11.4,12.9833333 12.9833333,11.4 14.5666667,9.8 C15.15,9.21666667 15.1333333,8.5 14.55,7.9 Z M3.16666667,4.43333333 C2.46666667,4.43333333 1.9,3.86666667 1.88333333,3.18333333 C1.88333333,2.48333333 2.45,1.9 3.16666667,1.9 C3.86666667,1.9 4.43333333,2.48333333 4.43333333,3.16666667 C4.43333333,3.86666667 3.86666667,4.43333333 3.16666667,4.43333333 Z" id="Shape"></path>
            </g>
        </g>
    </g>
</svg>