<?xml version="1.0" encoding="UTF-8"?>
<svg width="14px" height="14px" viewBox="0 0 14 14" version="1.1" xmlns="http://www.w3.org/2000/svg" xmlns:xlink="http://www.w3.org/1999/xlink">
    <!-- Generator: Sketch 50.2 (55047) - http://www.bohemiancoding.com/sketch -->
    <title>noun_662132_cc</title>
    <desc>Created with Sketch.</desc>
    <defs></defs>
    <g id="Page-1" stroke="none" stroke-width="1" fill="none" fill-rule="evenodd">
        <g id="Desktop-HD-Actualités" transform="translate(-153.000000, -998.000000)" fill="#26529B" fill-rule="nonzero">
            <g id="noun_662132_cc" transform="translate(160.000000, 1005.000000) rotate(90.000000) translate(-160.000000, -1005.000000) translate(153.000000, 998.000000)">
                <path d="M13.58,7.37333333 C11.4333333,5.22666667 9.30222222,3.08 7.14,0.948888889 C6.51777778,0.311111111 5.74,0 4.83777778,0 C3.70222222,0 2.55111111,0 1.41555556,0 C0.466666667,0 0,0.451111111 0,1.38444444 C0,1.96 0,2.55111111 0,3.12666667 C0,3.73333333 0,4.34 0,4.93111111 C0.0155555556,5.75555556 0.295555556,6.47111111 0.871111111,7.06222222 C3.03333333,9.24 5.19555556,11.4022222 7.35777778,13.5644444 C7.90222222,14.1088889 8.60222222,14.14 9.14666667,13.5955556 C10.64,12.1177778 12.1177778,10.64 13.5955556,9.14666667 C14.14,8.60222222 14.1244444,7.93333333 13.58,7.37333333 Z M2.95555556,4.13777778 C2.30222222,4.13777778 1.77333333,3.60888889 1.75777778,2.97111111 C1.75777778,2.31777778 2.28666667,1.77333333 2.95555556,1.77333333 C3.60888889,1.77333333 4.13777778,2.31777778 4.13777778,2.95555556 C4.13777778,3.60888889 3.60888889,4.13777778 2.95555556,4.13777778 Z" id="Shape"></path>
            </g>
        </g>
    </g>
</svg>