<?xml version="1.0" encoding="UTF-8"?>
<svg width="16px" height="16px" viewBox="0 0 16 16" version="1.1" xmlns="http://www.w3.org/2000/svg" xmlns:xlink="http://www.w3.org/1999/xlink">
    <!-- Generator: Sketch 50.2 (55047) - http://www.bohemiancoding.com/sketch -->
    <title>noun_662132_cc</title>
    <desc>Created with Sketch.</desc>
    <defs></defs>
    <g id="Page-1" stroke="none" stroke-width="1" fill="none" fill-rule="evenodd">
        <g id="Desktop-HD-Actualités" transform="translate(-153.000000, -998.000000)" fill="#26529B" fill-rule="nonzero">
            <g id="noun_662132_cc" transform="translate(161.000000, 1006.000000) rotate(90.000000) translate(-161.000000, -1006.000000) translate(153.000000, 998.000000)">
                <path d="M15.52,8.42666667 C13.0666667,5.97333333 10.6311111,3.52 8.16,1.08444444 C7.44888889,0.355555556 6.56,0 5.52888889,0 C4.23111111,0 2.91555556,0 1.61777778,0 C0.533333333,0 0,0.515555556 0,1.58222222 C0,2.24 0,2.91555556 0,3.57333333 C0,4.26666667 0,4.96 0,5.63555556 C0.0177777778,6.57777778 0.337777778,7.39555556 0.995555556,8.07111111 C3.46666667,10.56 5.93777778,13.0311111 8.40888889,15.5022222 C9.03111111,16.1244444 9.83111111,16.16 10.4533333,15.5377778 C12.16,13.8488889 13.8488889,12.16 15.5377778,10.4533333 C16.16,9.83111111 16.1422222,9.06666667 15.52,8.42666667 Z M3.37777778,4.72888889 C2.63111111,4.72888889 2.02666667,4.12444444 2.00888889,3.39555556 C2.00888889,2.64888889 2.61333333,2.02666667 3.37777778,2.02666667 C4.12444444,2.02666667 4.72888889,2.64888889 4.72888889,3.37777778 C4.72888889,4.12444444 4.12444444,4.72888889 3.37777778,4.72888889 Z" id="Shape"></path>
            </g>
        </g>
    </g>
</svg>