<?xml version="1.0" encoding="UTF-8"?>
<svg width="113px" height="113px" viewBox="0 0 113 113" version="1.1" xmlns="http://www.w3.org/2000/svg" xmlns:xlink="http://www.w3.org/1999/xlink">
    <!-- Generator: Sketch 50.2 (55047) - http://www.bohemiancoding.com/sketch -->
    <title>Group 10</title>
    <desc>Created with Sketch.</desc>
    <defs></defs>
    <g id="symbols" stroke="none" stroke-width="1" fill="none" fill-rule="evenodd">
        <g id="Group-10" transform="translate(4.000000, 4.000000)">
            <circle id="Oval-3" stroke="#333333" stroke-width="7" cx="52.5" cy="52.5" r="52.5"></circle>
            <g id="decouverte" transform="translate(22.000000, 21.000000)" fill="#333333" fill-rule="nonzero">
                <g id="Group" transform="translate(3.573333, 25.013333)">
                    <path d="M23.048,3.76803419 C23.048,5.4905641 21.7616,8.28967521 20.1536,8.28967521 C18.4384,8.28967521 17.0448,5.38290598 17.0448,3.76803419 C17.0448,2.04550427 18.4384,0.753606838 20.0464,0.753606838 C21.6544,0.753606838 23.048,2.15316239 23.048,3.76803419 Z" id="Shape"></path>
                    <path d="M24.8704,23.4694701 C24.8704,24.0077607 24.9776,24.5460513 25.2992,24.9766838 C25.192,31.7591453 25.192,39.7258462 25.192,39.9411624 C25.0848,41.1254017 23.7984,41.5560342 23.2624,41.5560342 C22.2976,41.5560342 21.44,40.6947692 21.3328,39.7258462 C21.2256,38.7569231 20.904,29.1753504 20.904,28.6370598 C20.904,28.3140855 20.6896,28.0987692 20.368,28.0987692 C20.0464,28.0987692 19.832,28.3140855 19.832,28.6370598 C19.832,28.6370598 19.9392,39.5105299 19.832,39.8335043 C19.6176,41.4483761 18.0096,41.4483761 17.9024,41.4483761 C17.7952,41.4483761 16.4016,41.4483761 16.08,39.9411624 C16.08,39.7258462 15.3296,26.3762393 15.2224,24.8690256 C15.2224,24.7613675 15.2224,24.7613675 15.2224,24.7613675 C14.3648,24.7613675 13.7216,24.1154188 13.7216,23.361812 C13.7216,23.361812 13.6144,14.5338462 13.6144,14.3185299 C13.6144,13.1342906 13.7216,11.734735 14.5792,10.765812 C15.008,10.3351795 15.9728,9.68923077 16.9376,9.47391453 C17.152,9.36625641 17.3664,9.36625641 17.688,9.36625641 C18.9744,9.25859829 20.7968,9.15094017 22.7264,9.25859829 C23.048,9.25859829 23.2624,9.36625641 23.6912,9.47391453 C24.3344,9.68923077 24.656,9.79688889 24.9776,10.0122051 C25.192,10.1198632 25.4064,10.3351795 25.6208,10.5504957 C25.2992,11.0887863 25.0848,11.734735 24.9776,12.2730256 C24.8704,13.0266325 24.7632,13.7802393 24.7632,14.426188 C24.7632,14.6415043 24.8704,21.4239658 24.8704,23.2541538 C24.8704,23.2541538 24.8704,23.361812 24.8704,23.4694701 Z" id="Shape"></path>
                    <path d="M10.2912,3.76803419 C10.2912,5.4905641 9.0048,8.28967521 7.3968,8.28967521 C5.6816,8.28967521 4.288,5.38290598 4.288,3.76803419 C4.288,2.04550427 5.6816,0.753606838 7.2896,0.753606838 C9.0048,0.753606838 10.2912,2.15316239 10.2912,3.76803419 Z" id="Shape"></path>
                    <path d="M12.1136,23.4694701 C12.1136,24.0077607 12.328,24.6537094 12.5424,25.0843419 C12.4352,31.8668034 12.4352,39.7258462 12.4352,39.9411624 C12.328,41.1254017 11.0416,41.5560342 10.5056,41.5560342 C9.5408,41.5560342 8.6832,40.6947692 8.576,39.7258462 C8.4688,38.7569231 8.1472,29.1753504 8.1472,28.6370598 C8.1472,28.3140855 7.9328,28.0987692 7.6112,28.0987692 C7.2896,28.0987692 7.0752,28.3140855 7.0752,28.6370598 C7.0752,28.6370598 7.1824,39.5105299 7.0752,39.8335043 C6.8608,41.4483761 5.2528,41.4483761 5.1456,41.4483761 C5.0384,41.4483761 3.6448,41.4483761 3.3232,39.9411624 C3.3232,39.7258462 2.5728,26.3762393 2.4656,24.8690256 C2.4656,24.7613675 2.4656,24.7613675 2.4656,24.7613675 C1.7152,24.7613675 0.9648,24.1154188 0.9648,23.361812 C0.9648,23.361812 0.8576,14.5338462 0.8576,14.3185299 C0.8576,13.1342906 0.9648,11.734735 1.8224,10.765812 C2.2512,10.3351795 3.216,9.68923077 4.1808,9.47391453 C4.3952,9.36625641 4.6096,9.36625641 4.9312,9.36625641 C5.0384,9.36625641 5.2528,9.36625641 5.36,9.36625641 C6.432,9.25859829 7.8256,9.15094017 9.4336,9.25859829 C9.648,9.25859829 9.7552,9.25859829 9.9696,9.25859829 C10.2912,9.25859829 10.5056,9.36625641 10.9344,9.47391453 C11.5776,9.68923077 11.8992,9.79688889 12.2208,10.0122051 C12.4352,10.1198632 12.6496,10.3351795 12.864,10.4428376 C12.5424,10.9811282 12.328,11.5194188 12.2208,12.1653675 C12.0064,12.9189744 12.0064,13.6725812 12.0064,14.426188 C12.0064,14.6415043 12.1136,21.4239658 12.1136,23.2541538 C12.1136,23.2541538 12.1136,23.361812 12.1136,23.4694701 Z" id="Shape"></path>
                    <path d="M35.8048,3.76803419 C35.8048,5.4905641 34.5184,8.28967521 32.9104,8.28967521 C31.1952,8.28967521 29.8016,5.38290598 29.8016,3.76803419 C29.8016,2.04550427 31.1952,0.753606838 32.8032,0.753606838 C34.4112,0.753606838 35.8048,2.15316239 35.8048,3.76803419 Z" id="Shape"></path>
                    <path d="M39.7712,14.2108718 C39.7712,14.3185299 39.7712,15.3951111 39.7712,16.6870085 C39.664,19.3784615 39.664,23.2541538 39.664,23.2541538 C39.664,24.0077607 39.0208,24.6537094 38.2704,24.6537094 C38.1632,31.4361709 38.1632,39.618188 38.1632,39.8335043 C38.056,41.0177436 36.7696,41.4483761 36.2336,41.4483761 C35.2688,41.4483761 34.4112,40.5871111 34.304,39.618188 C34.1968,38.649265 33.8752,29.0676923 33.8752,28.5294017 C33.8752,28.2064274 33.6608,27.9911111 33.3392,27.9911111 C33.0176,27.9911111 32.8032,28.2064274 32.8032,28.5294017 C32.8032,28.5294017 32.9104,39.4028718 32.8032,39.7258462 C32.5888,41.3407179 30.9808,41.3407179 30.8736,41.3407179 C30.7664,41.3407179 29.3728,41.3407179 29.0512,39.8335043 C29.0512,39.618188 28.3008,26.2685812 28.1936,24.7613675 C28.1936,24.6537094 28.1936,24.6537094 28.1936,24.6537094 C27.336,24.6537094 26.6928,24.0077607 26.6928,23.2541538 C26.6928,23.2541538 26.5856,14.426188 26.5856,14.2108718 C26.5856,13.0266325 26.6928,11.6270769 27.5504,10.6581538 C27.9792,10.2275214 28.944,9.58157265 29.9088,9.36625641 C30.1232,9.25859829 30.3376,9.25859829 30.6592,9.25859829 C31.9456,9.15094017 33.768,9.04328205 35.6976,9.15094017 C36.0192,9.15094017 36.2336,9.25859829 36.6624,9.36625641 C37.3056,9.58157265 37.6272,9.68923077 37.9488,9.90454701 C39.128,10.5504957 39.8784,11.8423932 39.9856,13.1342906 C39.7712,13.5649231 39.7712,13.8878974 39.7712,14.2108718 Z" id="Shape"></path>
                    <path d="M48.6688,3.76803419 C48.6688,5.4905641 47.3824,8.28967521 45.7744,8.28967521 C44.0592,8.28967521 42.6656,5.38290598 42.6656,3.76803419 C42.6656,2.04550427 44.0592,0.753606838 45.6672,0.753606838 C47.3824,0.753606838 48.776,2.15316239 48.6688,3.76803419 Z" id="Shape"></path>
                    <path d="M52.6352,14.2108718 C52.6352,14.3185299 52.6352,15.3951111 52.6352,16.6870085 C52.528,19.4861197 52.528,23.361812 52.528,23.361812 C52.528,24.1154188 51.8848,24.7613675 51.1344,24.7613675 C51.0272,31.5438291 51.0272,39.7258462 51.0272,39.9411624 C50.92,41.1254017 49.6336,41.5560342 49.0976,41.5560342 C48.1328,41.5560342 47.2752,40.6947692 47.168,39.7258462 C47.0608,38.7569231 46.7392,29.1753504 46.7392,28.6370598 C46.7392,28.3140855 46.5248,28.0987692 46.2032,28.0987692 C45.8816,28.0987692 45.6672,28.3140855 45.6672,28.6370598 C45.6672,28.6370598 45.7744,39.5105299 45.6672,39.8335043 C45.4528,41.4483761 43.8448,41.4483761 43.7376,41.4483761 C43.6304,41.4483761 42.2368,41.4483761 41.9152,39.9411624 C41.9152,39.7258462 41.1648,26.3762393 41.0576,24.8690256 C41.0576,24.7613675 41.0576,24.7613675 41.0576,24.7613675 C40.9504,24.7613675 40.9504,24.7613675 40.8432,24.7613675 C41.0576,24.330735 41.272,23.7924444 41.272,23.2541538 L41.272,23.1464957 C41.272,22.3928889 41.3792,19.0554872 41.3792,16.6870085 C41.3792,15.5027692 41.3792,14.3185299 41.3792,14.2108718 C41.3792,13.7802393 41.3792,13.3496068 41.3792,13.0266325 C41.3792,12.8113162 41.272,12.596 41.272,12.3806838 C41.1648,11.734735 40.9504,11.1964444 40.6288,10.6581538 C41.1648,10.2275214 42.0224,9.79688889 42.7728,9.58157265 C42.9872,9.47391453 43.2016,9.47391453 43.5232,9.47391453 C43.6304,9.47391453 43.8448,9.47391453 43.952,9.47391453 C45.024,9.36625641 46.4176,9.25859829 48.0256,9.36625641 C48.24,9.36625641 48.3472,9.36625641 48.5616,9.36625641 C48.8832,9.36625641 49.0976,9.47391453 49.5264,9.58157265 C50.1696,9.79688889 50.4912,9.90454701 50.8128,10.1198632 C51.992,10.765812 52.7424,12.0577094 52.8496,13.3496068 C52.6352,13.5649231 52.7424,13.8878974 52.6352,14.2108718 Z" id="Shape"></path>
                </g>
                <path d="M39.6932529,20.5242944 L34.291746,18.67261 C34.5035698,17.1476935 34.3976579,15.5138543 33.6562746,14.0978604 C31.8557723,10.2855691 27.4074725,8.76065259 23.8064679,10.6123369 C20.0995513,12.4640213 18.6167847,17.0387709 20.417287,20.7421396 C22.2177894,24.5544309 26.6660892,26.0793474 30.2670938,24.2276631 C31.7498604,23.4652048 32.8089794,22.3759787 33.4444508,20.9599848 L38.8459577,22.8116691 C39.0577815,22.8116691 39.2696053,22.8116691 39.4814291,22.7027465 C39.7991648,22.5938239 40.0109886,22.2670561 40.1169005,21.9402883 C40.3287243,21.5045978 40.1169005,20.8510622 39.6932529,20.5242944 Z M29.5257105,22.5938239 C26.7720011,24.0098178 23.4887322,22.8116691 22.1118775,19.9796813 C20.7350227,17.1476935 21.9000537,13.7710926 24.6537631,12.3550987 C27.4074725,10.9391048 30.6907414,12.1372535 32.0675961,14.9692413 C33.3385389,17.8012291 32.2794199,21.17783 29.5257105,22.5938239 Z" id="Shape"></path>
                <path d="M56.7502038,0 L4.09982461,0 C1.83413206,0 0,1.85560557 0,4.14782422 L0,29.7988424 C0,32.0910611 1.83413206,33.9466667 4.09982461,33.9466667 L4.96294558,33.9466667 C5.61028631,33.5100536 6.47340728,33.0734405 7.33652825,32.7459807 C7.44441837,32.7459807 7.44441837,32.7459807 7.5523085,32.6368274 C7.01285789,31.7636013 6.47340728,30.7812219 6.25762704,29.7988424 L4.09982461,29.7988424 L4.09982461,4.14782422 L56.7502038,4.14782422 L56.7502038,29.7988424 L53.9450607,29.7988424 C53.7292804,30.6720686 53.4056101,31.654448 52.8661595,32.5276742 C53.0819397,32.5276742 53.29772,32.6368274 53.5135002,32.7459807 C54.2687311,32.9642872 54.7002915,33.1825938 55.131852,33.4009003 C55.4555224,33.5100536 55.6713026,33.7283601 55.8870829,33.9466667 L56.6423137,33.9466667 C58.9080063,33.9466667 60.7421383,32.0910611 60.7421383,29.7988424 L60.7421383,4.14782422 C60.8500285,1.85560557 59.0158964,0 56.7502038,0 Z" id="Shape"></path>
            </g>
        </g>
    </g>
</svg>