<?xml version="1.0" encoding="UTF-8"?>
<svg width="113px" height="113px" viewBox="0 0 113 113" version="1.1" xmlns="http://www.w3.org/2000/svg" xmlns:xlink="http://www.w3.org/1999/xlink">
    <!-- Generator: Sketch 50.2 (55047) - http://www.bohemiancoding.com/sketch -->
    <title>Group 8</title>
    <desc>Created with Sketch.</desc>
    <defs></defs>
    <g id="symbols" stroke="none" stroke-width="1" fill="none" fill-rule="evenodd">
        <g id="Group-8" transform="translate(4.000000, 4.000000)">
            <circle id="Oval-3" stroke="#333333" stroke-width="7" cx="52.5" cy="52.5" r="52.5"></circle>
            <g id="noun_1170613_cc" transform="translate(24.000000, 22.000000)" fill="#333333" fill-rule="nonzero">
                <path d="M58.6713324,26.8858841 C58.6713324,26.8858841 58.4162397,26.8858841 58.1611469,26.8858841 L54.3347557,26.8858841 L54.3347557,16.211302 C54.3347557,16.211302 54.3347557,15.9509464 54.3347557,15.9509464 C54.3347557,15.6905907 54.0796629,15.430235 53.8245702,15.1698794 L39.2842835,0.329606706 C39.0291907,0.329606706 39.0291907,0.0692510451 38.774098,0.0692510451 C38.774098,0.0692510451 38.774098,0.0692510451 38.5190052,0.0692510451 C38.5190052,0.0692510451 38.5190052,0.0692510451 38.2639125,0.0692510451 L1.020371,0.0692510451 C0.5101855,-0.191104616 0,0.329606706 0,0.850318027 L0,57.6078521 C0,60.2114087 2.040742,62.0338983 4.33657675,62.0338983 L56.6305904,62.0338983 C59.1815179,62.0338983 60.9671672,59.951053 60.9671672,57.6078521 L60.9671672,29.7497964 C61.2222599,28.4480181 59.9467962,27.1462398 58.6713324,26.8858841 Z M39.5393762,3.45387463 L50.7634572,14.9095237 L39.5393762,14.9095237 L39.5393762,3.45387463 Z M4.5916695,60.2114087 C3.31620575,60.2114087 2.29583475,59.169986 2.29583475,57.8682077 L2.29583475,1.89174067 L37.753727,1.89174067 L37.753727,15.9509464 C37.753727,16.4716577 38.2639125,16.992369 38.774098,16.992369 L52.5491065,16.992369 L52.5491065,27.9273067 C52.5491065,27.9273067 52.5491065,27.9273067 52.5491065,27.9273067 C52.5491065,27.9273067 52.5491065,27.9273067 52.5491065,27.9273067 L52.5491065,30.5308634 L52.5491065,54.2232285 L52.5491065,57.6078521 C52.5491065,58.3889191 52.8041992,59.4303417 53.3143847,59.951053 L4.5916695,59.951053 L4.5916695,60.2114087 Z M54.3347557,30.5308634 L54.3347557,28.9687294 L55.6102194,28.9687294 C55.6102194,29.229085 55.6102194,29.4894407 55.6102194,29.7497964 L55.6102194,53.1818058 L54.5898484,53.1818058 L54.5898484,30.5308634 L54.3347557,30.5308634 Z M59.1815179,57.6078521 C59.1815179,58.9096304 58.1611469,59.951053 56.8856832,59.951053 C55.6102194,59.951053 54.5898484,58.9096304 54.5898484,57.6078521 L54.5898484,55.2646511 L56.6305904,55.2646511 C57.1407759,55.2646511 57.6509614,54.7439398 57.6509614,54.2232285 L57.6509614,29.7497964 C57.6509614,29.229085 57.9060542,28.9687294 58.4162397,28.9687294 C58.9264252,28.9687294 59.1815179,29.229085 59.1815179,29.7497964 L59.1815179,57.6078521 Z" id="Shape"></path>
                <path d="M6.64816679,14.315515 L31.8287563,14.315515 C32.3374551,14.315515 32.8461538,13.7889673 32.8461538,13.2624196 L32.8461538,7.73366902 C32.8461538,7.20712134 32.3374551,6.68057366 31.8287563,6.68057366 L6.64816679,6.68057366 C6.13946801,6.68057366 5.63076923,7.20712134 5.63076923,7.73366902 L5.63076923,13.2624196 C5.63076923,13.7889673 6.13946801,14.315515 6.64816679,14.315515 Z M7.66556434,8.78676438 L30.8113587,8.78676438 L30.8113587,12.4725981 L7.66556434,12.4725981 L7.66556434,8.78676438 Z" id="Shape"></path>
                <path d="M46.8619936,42.946545 L6.63031406,42.946545 C6.13054165,42.946545 5.63076923,43.4237288 5.63076923,43.9009126 C5.63076923,44.3780965 6.13054165,44.8552803 6.63031406,44.8552803 L46.8619936,44.8552803 C47.361766,44.8552803 47.8615385,44.3780965 47.8615385,43.9009126 C47.8615385,43.4237288 47.6116523,42.946545 46.8619936,42.946545 Z" id="Shape"></path>
                <path d="M6.66307692,38.1747066 L25.2446154,38.1747066 C25.7607692,38.1747066 26.2769231,37.6562847 26.2769231,37.1378628 L26.2769231,18.2154619 C26.2769231,17.6970399 25.7607692,17.178618 25.2446154,17.178618 L6.66307692,17.178618 C6.14692308,17.178618 5.63076923,17.6970399 5.63076923,18.2154619 L5.63076923,36.8786518 C5.63076923,37.6562847 6.14692308,38.1747066 6.66307692,38.1747066 Z M7.69538462,19.2523058 L24.2123077,19.2523058 L24.2123077,35.8418079 L7.69538462,35.8418079 L7.69538462,19.2523058 Z" id="Shape"></path>
                <path d="M47.7676923,28.63103 L29.1861538,28.63103 C28.67,28.63103 28.1538462,29.1082138 28.1538462,29.5853977 C28.1538462,30.0625815 28.67,30.5397653 29.1861538,30.5397653 L47.7676923,30.5397653 C48.2838462,30.5397653 48.8,30.0625815 48.8,29.5853977 C48.8,29.1082138 48.5419231,28.63103 47.7676923,28.63103 Z" id="Shape"></path>
                <path d="M47.7676923,23.8591917 L29.1861538,23.8591917 C28.67,23.8591917 28.1538462,24.3363755 28.1538462,24.8135593 C28.1538462,25.2907432 28.67,25.767927 29.1861538,25.767927 L47.7676923,25.767927 C48.2838462,25.767927 48.8,25.2907432 48.8,24.8135593 C48.8,24.3363755 48.5419231,23.8591917 47.7676923,23.8591917 Z" id="Shape"></path>
                <path d="M47.7676923,49.6271186 L29.1861538,49.6271186 C28.67,49.6271186 28.1538462,50.1043025 28.1538462,50.5814863 C28.1538462,51.0586701 28.67,51.535854 29.1861538,51.535854 L47.7676923,51.535854 C48.2838462,51.535854 48.8,51.0586701 48.8,50.5814863 C48.8,50.1043025 48.5419231,49.6271186 47.7676923,49.6271186 Z" id="Shape"></path>
                <path d="M47.7676923,53.4445893 L29.1861538,53.4445893 C28.67,53.4445893 28.1538462,53.9217731 28.1538462,54.398957 C28.1538462,54.8761408 28.67,55.3533246 29.1861538,55.3533246 L47.7676923,55.3533246 C48.2838462,55.3533246 48.8,54.8761408 48.8,54.398957 C48.8,53.9217731 48.5419231,53.4445893 47.7676923,53.4445893 Z" id="Shape"></path>
                <path d="M25.2446154,49.6271186 L6.66307692,49.6271186 C6.14692308,49.6271186 5.63076923,50.1043025 5.63076923,50.5814863 C5.63076923,51.0586701 6.14692308,51.535854 6.66307692,51.535854 L25.2446154,51.535854 C25.7607692,51.535854 26.2769231,51.0586701 26.2769231,50.5814863 C26.2769231,50.1043025 26.0188462,49.6271186 25.2446154,49.6271186 Z" id="Shape"></path>
                <path d="M25.2446154,53.4445893 L6.66307692,53.4445893 C6.14692308,53.4445893 5.63076923,53.9217731 5.63076923,54.398957 C5.63076923,54.8761408 6.14692308,55.3533246 6.66307692,55.3533246 L25.2446154,55.3533246 C25.7607692,55.3533246 26.2769231,54.8761408 26.2769231,54.398957 C26.2769231,53.9217731 26.0188462,53.4445893 25.2446154,53.4445893 Z" id="Shape"></path>
                <path d="M37.4937729,37.220339 L29.1369963,37.220339 C28.6454212,37.220339 28.1538462,37.6975228 28.1538462,38.1747066 C28.1538462,38.6518905 28.6454212,39.1290743 29.1369963,39.1290743 L37.4937729,39.1290743 C37.985348,39.1290743 38.4769231,38.6518905 38.4769231,38.1747066 C38.4769231,37.6975228 37.985348,37.220339 37.4937729,37.220339 Z" id="Shape"></path>
                <path d="M37.4937729,33.4028683 L29.1369963,33.4028683 C28.6454212,33.4028683 28.1538462,33.8800522 28.1538462,34.357236 C28.1538462,34.8344198 28.6454212,35.3116037 29.1369963,35.3116037 L37.4937729,35.3116037 C37.985348,35.3116037 38.4769231,34.8344198 38.4769231,34.357236 C38.4769231,33.8800522 37.985348,33.4028683 37.4937729,33.4028683 Z" id="Shape"></path>
                <path d="M17.4807484,28.4778055 C17.2372557,28.4778055 16.993763,28.2315523 16.993763,28.2315523 C16.993763,28.2315523 16.993763,28.2315523 16.993763,28.2315523 C17.7242412,27.4927929 18.2112266,26.5077803 18.4547193,25.2765146 C18.4547193,24.0452489 18.2112266,23.0602363 17.4807484,22.3214769 C16.2632848,20.5977049 13.8283576,20.5977049 12.610894,22.0752238 C11.8804158,23.0602363 11.6369231,24.0452489 11.6369231,25.2765146 C11.8804158,26.7540335 12.3674012,27.739046 13.0978794,28.2315523 C12.3674012,28.4778055 10.1759667,29.7090712 9.68898129,30.6940838 C9.20199584,31.6790963 9.44548857,32.4178557 9.44548857,32.6641089 C9.44548857,33.1566152 9.93247401,33.4028683 10.4194595,33.4028683 L19.672183,33.4028683 C20.1591684,33.4028683 20.6461538,32.910362 20.6461538,32.4178557 C20.6461538,32.4178557 20.6461538,31.6790963 20.4026611,30.9403369 C20.4026611,29.9553243 19.1851975,29.2165649 17.4807484,28.4778055 Z M14.0718503,23.3064895 C14.315343,23.0602363 14.8023285,23.0602363 15.0458212,23.0602363 C15.2893139,23.0602363 15.7762994,23.0602363 16.0197921,23.5527426 C16.2632848,23.7989958 16.5067775,24.2915021 16.5067775,25.0302615 C16.5067775,25.5227678 16.0197921,27.2465398 15.0458212,27.2465398 C14.0718503,27.2465398 13.8283576,25.5227678 13.5848649,25.0302615 C13.5848649,24.2915021 13.8283576,23.7989958 14.0718503,23.3064895 Z M11.6369231,31.4328432 C12.1239085,30.9403369 13.0978794,30.4478306 13.8283576,30.2015775 C14.5588358,30.4478306 15.5328067,30.4478306 16.2632848,30.2015775 C16.5067775,30.2015775 16.5067775,30.4478306 16.7502703,30.4478306 C17.2372557,30.6940838 18.4547193,31.4328432 18.6982121,31.4328432 C18.6982121,31.4328432 18.6982121,31.4328432 18.6982121,31.4328432 L11.6369231,31.4328432 Z" id="Shape"></path>
            </g>
        </g>
    </g>
</svg>