<?xml version="1.0" encoding="UTF-8"?>
<svg width="113px" height="113px" viewBox="0 0 113 113" version="1.1" xmlns="http://www.w3.org/2000/svg" xmlns:xlink="http://www.w3.org/1999/xlink">
    <!-- Generator: Sketch 50.2 (55047) - http://www.bohemiancoding.com/sketch -->
    <title>Group 7</title>
    <desc>Created with Sketch.</desc>
    <defs></defs>
    <g id="symbols" stroke="none" stroke-width="1" fill="none" fill-rule="evenodd">
        <g id="Group-7" transform="translate(4.000000, 4.000000)">
            <circle id="Oval-3" stroke="#333333" stroke-width="7" cx="52.5" cy="52.5" r="52.5"></circle>
            <g id="offres-emploi" transform="translate(19.000000, 22.000000)" fill="#333333" fill-rule="nonzero">
                <path d="M11.33146,30.5833344 C11.2220685,23.7576629 9.90937031,17.2622657 7.94032305,10.9870516 C7.39336548,9.33567942 6.7370164,7.79439875 6.19005883,6.1430266 C5.64310126,4.60174593 5.86188429,4.05128854 7.28397397,3.72101411 C18.6606914,0.968727194 30.1468004,-0.57255348 41.8516924,0.198086857 C48.0870087,0.528361288 54.103542,1.73936753 60.0106838,3.72101411 C60.6670329,3.94119707 61.3233819,4.60174593 61.6515565,5.15220331 C65.589651,13.9595214 67.7774813,23.317297 67.9962643,32.8952554 C68.1056558,42.032848 65.808434,50.6199832 61.6515565,58.7667525 C61.2139904,59.7575758 60.4482498,59.7575758 59.5731177,59.7575758 C53.2284099,59.7575758 46.7743106,59.7575758 40.4296027,59.7575758 C29.1622768,59.7575758 17.8949508,59.7575758 6.62762488,59.7575758 C5.09614369,59.7575758 4.4397946,59.2071184 4.11162006,57.6658377 C2.14257281,49.6291599 0.829874637,41.4823906 0.0641340384,33.3356213 C-0.15464899,30.6934259 0.0641340384,30.473243 2.68953038,30.473243 C5.42431823,30.5833344 8.2684976,30.5833344 11.33146,30.5833344 Z M9.0342382,57.2254718 C9.47180425,57.3355633 9.58119577,57.3355633 9.69058728,57.3355633 C25.8805314,57.3355633 42.0704755,57.3355633 58.2604195,57.3355633 C58.9167686,57.3355633 59.7919007,56.6750144 60.0106838,56.124557 C62.8548631,50.3998002 64.6051274,44.344769 65.1520849,37.9594634 C66.1366086,27.1704987 63.8393868,16.8218998 59.6825092,6.91366694 C59.4637262,6.47330103 58.9167686,5.92284365 58.4792026,5.81275217 C53.0096269,3.94119707 47.3212681,3.06046525 41.5235179,2.62009935 C32.8815883,2.06964196 24.2396587,2.8402823 15.7071206,4.38156297 C13.4098988,4.82192888 11.112677,5.37238626 8.70606365,5.92284365 C15.7071206,23.2072055 15.4883375,40.1612929 9.0342382,57.2254718 Z M1.92378978,33.1154384 C3.23648795,41.1521162 4.4397946,48.968611 5.64310126,56.8951974 C5.86188429,56.8951974 6.08066731,56.8951974 6.19005883,56.8951974 C9.14362971,49.2988855 11.0032854,41.4823906 11.112677,33.2255299 C8.15910608,33.1154384 5.31492672,33.1154384 1.92378978,33.1154384 Z" id="Shape"></path>
                <g id="Group" transform="translate(14.424242, 11.333333)">
                    <g id="Shape">
                        <path d="M0.989090909,2.23147941 C1.0989899,2.23147941 8.57212121,0.557869853 18.9026263,0.223147941 C17.0343434,0.781017795 15.3858586,1.67360956 13.8472727,2.6777753 C6.4840404,3.23564515 1.53858586,4.35138486 1.42868687,4.35138486 C0.879191919,4.46295883 0.21979798,4.12823691 0.10989899,3.57036706 C-7.07767178e-16,2.90092324 0.43959596,2.34305338 0.989090909,2.23147941 Z"></path>
                        <path d="M46.4872727,4.12823691 C46.3773737,4.5745328 45.9377778,4.90925471 45.4981818,4.90925471 C45.3882828,4.90925471 45.2783838,4.90925471 45.2783838,4.90925471 C41.7616162,4.01666294 38.1349495,3.34721912 34.6181818,2.90092324 C33.079596,1.78518353 31.4311111,0.892591765 29.5628283,0.223147941 C34.8379798,0.557869853 40.3329293,1.22731368 45.8278788,2.6777753 C46.2674747,2.90092324 46.5971717,3.45879309 46.4872727,4.12823691 Z"></path>
                        <path d="M7.03353535,22.872664 C7.25333333,23.5421078 7.47313131,24.3231256 7.80282828,24.9925694 C5.60484848,25.4388653 4.28606061,25.6620133 4.17616162,25.6620133 C4.06626263,25.6620133 3.95636364,25.6620133 3.95636364,25.6620133 C3.51676768,25.6620133 3.07717172,25.3272913 2.85737374,24.7694215 C2.74747475,24.2115516 3.07717172,23.5421078 3.62666667,23.4305338 C3.73656566,23.4305338 4.94545455,23.2073859 7.03353535,22.872664 Z"></path>
                        <path d="M31.6509091,21.0874805 C31.3212121,21.8684983 30.8816162,22.5379421 30.2222222,23.2073859 C25.8262626,23.0958119 21.650101,23.3189599 18.0234343,23.5421078 C17.4739394,22.984238 16.9244444,22.2032202 16.4848485,21.5337763 C20.9907071,21.0874805 26.1559596,20.8643325 31.6509091,21.0874805 Z"></path>
                        <path d="M49.1248485,24.6578475 C49.0149495,25.2157174 48.3555556,25.5504393 47.8060606,25.4388653 C45.3882828,24.8809955 42.9705051,24.4346996 40.6626263,24.0999777 C40.8824242,23.4305338 41.1022222,22.76109 41.3220202,21.9800722 C43.629899,22.3147941 46.0476768,22.76109 48.3555556,23.3189599 C48.9050505,23.4305338 49.3446465,23.9884037 49.1248485,24.6578475 Z"></path>
                        <path d="M2.96727273,12.6078587 C3.07717172,12.6078587 4.50585859,12.2731368 7.03353535,11.8268409 C6.81373737,12.6078587 6.59393939,13.3888765 6.4840404,14.1698943 C4.61575758,14.5046162 3.51676768,14.7277641 3.40686869,14.7277641 C3.2969697,14.7277641 3.18707071,14.7277641 3.18707071,14.7277641 C2.74747475,14.7277641 2.30787879,14.3930422 2.08808081,13.8351724 C2.08808081,13.3888765 2.41777778,12.7194327 2.96727273,12.6078587 Z"></path>
                        <path d="M30.7717172,12.3847107 C25.8262626,12.1615628 21.1006061,12.3847107 17.0343434,12.7194327 C17.6937374,11.8268409 18.4630303,10.9342491 19.3422222,10.3763793 C22.089697,10.1532313 25.0569697,10.0416574 28.2440404,10.1532313 C29.2331313,10.7111012 30.1123232,11.492119 30.7717172,12.3847107 Z"></path>
                        <path d="M48.4654545,13.7235984 C48.3555556,14.3930422 47.8060606,14.7277641 47.2565657,14.5046162 C45.2783838,14.0583203 43.410101,13.6120244 41.4319192,13.2773025 C41.2121212,12.4962847 40.9923232,11.7152669 40.7725253,10.9342491 C43.080404,11.268971 45.4981818,11.7152669 47.8060606,12.2731368 C48.2456566,12.6078587 48.6852525,13.1657285 48.4654545,13.7235984 Z"></path>
                        <path d="M48.0258586,34.253209 C47.9159596,34.8110788 47.2565657,35.1458008 46.7070707,35.0342268 C42.2012121,33.9184871 37.5854545,33.2490433 33.079596,33.0258953 C34.0686869,32.4680255 34.9478788,31.7985816 35.7171717,31.0175638 C39.4537374,31.3522858 43.410101,32.0217296 47.1466667,32.9143213 C47.8060606,33.1374693 48.2456566,33.6953391 48.0258586,34.253209 Z"></path>
                    </g>
                    <g transform="translate(3.296970, 27.893493)" id="Shape">
                        <path d="M9.01171717,7.81017795 L4.50585859,3.793515 L7.03353535,0.781017795 C7.25333333,0.557869853 7.5830303,0.669443824 7.91272727,0.892591765 L11.209697,3.90508897 C11.5393939,4.23981089 11.6492929,4.5745328 11.4294949,4.79768074 L9.01171717,7.81017795 Z"></path>
                        <path d="M1.53858586,11.8268409 C0.879191919,11.268971 0.549494949,10.5995272 0.43959596,9.81850942 C0.32969697,9.03749162 0.549494949,8.3680478 0.989090909,7.81017795 L1.64848485,7.14073412 L6.15434343,11.1573971 L5.49494949,11.8268409 C4.50585859,12.9425806 2.74747475,12.9425806 1.53858586,11.8268409 Z"></path>
                        <path d="M3.51676768,4.90925471 C3.62666667,4.90925471 3.84646465,4.90925471 3.95636364,5.02082868 L7.91272727,8.59119574 C8.02262626,8.70276971 8.13252525,8.81434368 8.02262626,9.03749162 L7.69292929,9.48378751 L7.25333333,10.0416574 C7.14343434,10.0416574 6.92363636,10.0416574 6.81373737,9.93008339 L2.85737374,6.35971633 C2.74747475,6.24814236 2.63757576,6.13656839 2.74747475,6.02499442 L3.51676768,4.90925471 Z"></path>
                    </g>
                    <path d="M24.0678788,32.9143213 C15.7155556,32.9143213 8.90181818,25.9967352 8.90181818,17.5171134 C8.90181818,9.03749162 15.7155556,2.11990544 24.0678788,2.11990544 C32.420202,2.11990544 39.2339394,9.03749162 39.2339394,17.5171134 C39.2339394,25.9967352 32.420202,32.9143213 24.0678788,32.9143213 Z M24.0678788,6.24814236 C17.9135354,6.24814236 12.9680808,11.268971 12.9680808,17.5171134 C12.9680808,23.7652558 17.9135354,28.7860844 24.0678788,28.7860844 C30.2222222,28.7860844 35.1676768,23.7652558 35.1676768,17.5171134 C35.1676768,11.268971 30.2222222,6.24814236 24.0678788,6.24814236 Z" id="Shape"></path>
                </g>
            </g>
        </g>
    </g>
</svg>