<?xml version="1.0" encoding="UTF-8"?>
<svg width="113px" height="113px" viewBox="0 0 113 113" version="1.1" xmlns="http://www.w3.org/2000/svg" xmlns:xlink="http://www.w3.org/1999/xlink">
    <!-- Generator: Sketch 50.2 (55047) - http://www.bohemiancoding.com/sketch -->
    <title>Group 6</title>
    <desc>Created with Sketch.</desc>
    <defs></defs>
    <g id="symbols" stroke="none" stroke-width="1" fill="none" fill-rule="evenodd">
        <g id="Group-6" transform="translate(4.000000, 4.000000)">
            <circle id="Oval-3" stroke="#333333" stroke-width="7" cx="52.5" cy="52.5" r="52.5"></circle>
            <g id="formation" transform="translate(16.000000, 25.000000)" fill="#333333" fill-rule="nonzero">
                <path d="M68.3588805,0 L29.9494568,0 C28.4402456,0 27.2328767,1.17446369 27.2328767,2.64254329 L27.2328767,3.89041096 L71,3.89041096 L71,2.64254329 C71,1.17446369 69.7926311,0 68.3588805,0 Z" id="Shape"></path>
                <path d="M27.2328767,36.3160537 C27.2328767,37.8482361 28.4402456,39.073982 29.9494568,39.073982 L41.8722248,39.073982 L32.0623524,57.3835616 L36.8163675,57.3835616 L46.7017005,39.073982 L51.6820973,39.073982 L61.5674303,57.3835616 L66.3214454,57.3835616 L56.3606519,39.073982 L68.2834199,39.073982 C69.7926311,39.073982 71,37.8482361 71,36.3160537 L71,35.0136986 L27.2328767,35.0136986 C27.2328767,35.0136986 27.2328767,36.3160537 27.2328767,36.3160537 Z" id="Shape"></path>
                <path d="M50.2617929,17.5623511 L33.4898878,19.0952576 C32.806869,20.0150015 31.7443954,20.6281641 30.5301398,20.6281641 L30.1506849,20.6281641 L30.1506849,34.0410959 L67.109589,34.0410959 L67.109589,5.83561644 L30.2265759,5.83561644 L30.2265759,13.3468582 L50.2617929,13.2702129 L50.2617929,17.5623511 Z" id="Shape"></path>
                <circle id="Oval" cx="11.1849315" cy="8.26712329" r="5.34931507"></circle>
                <path d="M30.0643324,19.3757722 C30.9551274,19.3757722 31.6232237,18.7655117 31.8459224,17.9264034 L47.6575342,16.4770346 L47.6575342,15.5616438 L20.8594503,15.6379264 C20.7852174,15.6379264 15.663146,15.5616438 15.2919814,15.5616438 C15.2919814,15.5616438 14.9208168,15.5616438 14.698118,15.5616438 L14.1042547,15.5616438 L12.0999659,19.5283374 L13.0649938,20.2148805 L11.5803354,22.9610529 L10.9864721,18.4603814 L10.7637733,17.0872952 L9.5760466,17.0872952 L9.35334784,18.4603814 L8.75948449,22.9610529 L7.2748261,20.2148805 L8.23985405,19.5283374 L6.23556523,15.5616438 L5.93863355,15.5616438 C2.6723851,15.5616438 0,18.3078163 0,21.6642493 L0,35.471394 C0,36.53935 0.816562113,37.3784582 1.85582298,37.3784582 C2.89508386,37.3784582 3.71164597,36.53935 3.71164597,35.471394 L3.71164597,21.5879667 C3.71164597,20.825141 4.08281057,20.1385979 4.602441,19.7571851 L4.602441,56.2202525 C4.602441,57.364491 5.49323603,58.3561644 6.68096274,58.3561644 C7.79445654,58.3561644 8.75948449,57.4407736 8.75948449,56.2202525 L8.75948449,38.5989793 L11.4318696,38.5989793 L11.4318696,56.2202525 C11.4318696,57.364491 12.3226646,58.3561644 13.5103913,58.3561644 C14.6238851,58.3561644 15.5889131,57.4407736 15.5889131,56.2202525 L15.5889131,22.4270749 L17.0735715,19.2994897 C17.5932019,19.2994897 18.1128323,19.2994897 18.6324628,19.2994897 C19.8201895,19.2994897 20.9336833,19.2994897 20.9336833,19.2994897 L29.7674007,19.2994897 L30.0643324,19.3757722 Z" id="Shape"></path>
            </g>
        </g>
    </g>
</svg>