<?xml version="1.0" encoding="UTF-8"?>
<svg width="113px" height="113px" viewBox="0 0 113 113" version="1.1" xmlns="http://www.w3.org/2000/svg" xmlns:xlink="http://www.w3.org/1999/xlink">
    <!-- Generator: Sketch 50.2 (55047) - http://www.bohemiancoding.com/sketch -->
    <title>Group 9</title>
    <desc>Created with Sketch.</desc>
    <defs></defs>
    <g id="symbols" stroke="none" stroke-width="1" fill="none" fill-rule="evenodd">
        <g id="Group-9" transform="translate(-2.000000, -3.000000)">
            <g id="Group-evenement22">
                <g id="Group-5" transform="translate(6.000000, 7.000000)">
                    <circle id="Oval-3" stroke="#333333" stroke-width="7" cx="52.5" cy="52.5" r="52.5"></circle>
                    <g id="event2" transform="translate(20.000000, 21.000000)" fill="#333333" fill-rule="nonzero">
                        <path d="M24.4695652,32.626087 C24.4695652,33.2086957 23.9597826,33.7184783 23.3771739,33.7184783 L19.298913,33.7184783 C18.7163043,33.7184783 18.2065217,33.2086957 18.2065217,32.626087 L18.2065217,28.5478261 C18.2065217,27.9652174 18.7163043,27.4554348 19.298913,27.4554348 L23.3771739,27.4554348 C23.9597826,27.4554348 24.4695652,27.9652174 24.4695652,28.5478261 L24.4695652,32.626087 Z M33.0630435,28.5478261 C33.0630435,27.9652174 32.5532609,27.4554348 31.9706522,27.4554348 L27.8923913,27.4554348 C27.3097826,27.4554348 26.8,27.9652174 26.8,28.5478261 L26.8,32.626087 C26.8,33.2086957 27.3097826,33.7184783 27.8923913,33.7184783 L31.9706522,33.7184783 C32.5532609,33.7184783 33.0630435,33.2086957 33.0630435,32.626087 L33.0630435,28.5478261 Z M41.6565217,28.5478261 C41.6565217,27.9652174 41.1467391,27.4554348 40.5641304,27.4554348 L36.4130435,27.4554348 C35.8304348,27.4554348 35.3206522,27.9652174 35.3206522,28.5478261 L35.3206522,32.626087 C35.3206522,33.2086957 35.8304348,33.7184783 36.4130435,33.7184783 L40.4913043,33.7184783 C41.073913,33.7184783 41.5836957,33.2086957 41.5836957,32.626087 L41.5836957,28.5478261 L41.6565217,28.5478261 Z M24.4695652,36.85 C24.4695652,36.2673913 23.9597826,35.7576087 23.3771739,35.7576087 L19.298913,35.7576087 C18.7163043,35.7576087 18.2065217,36.2673913 18.2065217,36.85 L18.2065217,40.9282609 C18.2065217,41.5108696 18.7163043,42.0206522 19.298913,42.0206522 L23.3771739,42.0206522 C23.9597826,42.0206522 24.4695652,41.5108696 24.4695652,40.9282609 L24.4695652,36.85 Z M33.0630435,36.85 C33.0630435,36.2673913 32.5532609,35.7576087 31.9706522,35.7576087 L27.8923913,35.7576087 C27.3097826,35.7576087 26.8,36.2673913 26.8,36.85 L26.8,40.9282609 C26.8,41.5108696 27.3097826,42.0206522 27.8923913,42.0206522 L31.9706522,42.0206522 C32.5532609,42.0206522 33.0630435,41.5108696 33.0630435,40.9282609 L33.0630435,36.85 Z M40.5641304,35.7576087 L36.4130435,35.7576087 C35.8304348,35.7576087 35.3206522,36.2673913 35.3206522,36.85 L35.3206522,40.9282609 C35.3206522,41.5108696 35.8304348,42.0206522 36.4130435,42.0206522 L40.4913043,42.0206522 C41.073913,42.0206522 41.5836957,41.5108696 41.5836957,40.9282609 L41.5836957,36.85 C41.6565217,36.2673913 41.1467391,35.7576087 40.5641304,35.7576087 Z M14.7836957,44.1326087 L10.7054348,44.1326087 C10.1228261,44.1326087 9.61304348,44.6423913 9.61304348,45.225 L9.61304348,49.3032609 C9.61304348,49.8858696 10.1228261,50.3956522 10.7054348,50.3956522 L14.7836957,50.3956522 C15.3663043,50.3956522 15.876087,49.8858696 15.876087,49.3032609 L15.876087,45.225 C15.876087,44.6423913 15.4391304,44.1326087 14.7836957,44.1326087 Z M15.876087,36.85 C15.876087,36.2673913 15.3663043,35.7576087 14.7836957,35.7576087 L10.7054348,35.7576087 C10.1228261,35.7576087 9.61304348,36.2673913 9.61304348,36.85 L9.61304348,40.9282609 C9.61304348,41.5108696 10.1228261,42.0206522 10.7054348,42.0206522 L14.7836957,42.0206522 C15.3663043,42.0206522 15.876087,41.5108696 15.876087,40.9282609 L15.876087,36.85 Z M31.9706522,44.1326087 L27.8923913,44.1326087 C27.3097826,44.1326087 26.8,44.6423913 26.8,45.225 L26.8,49.3032609 C26.8,49.8858696 27.3097826,50.3956522 27.8923913,50.3956522 L31.9706522,50.3956522 C32.5532609,50.3956522 33.0630435,49.8858696 33.0630435,49.3032609 L33.0630435,45.225 C33.0630435,44.6423913 32.5532609,44.1326087 31.9706522,44.1326087 Z M23.3771739,44.1326087 L19.298913,44.1326087 C18.7163043,44.1326087 18.2065217,44.6423913 18.2065217,45.225 L18.2065217,49.3032609 C18.2065217,49.8858696 18.7163043,50.3956522 19.298913,50.3956522 L23.3771739,50.3956522 C23.9597826,50.3956522 24.4695652,49.8858696 24.4695652,49.3032609 L24.4695652,45.225 C24.4695652,44.6423913 23.9597826,44.1326087 23.3771739,44.1326087 Z M45.0065217,27.4554348 C44.423913,27.4554348 43.9141304,27.9652174 43.9141304,28.5478261 L43.9141304,32.626087 C43.9141304,33.2086957 44.423913,33.7184783 45.0065217,33.7184783 L49.0847826,33.7184783 C49.6673913,33.7184783 50.1771739,33.2086957 50.1771739,32.626087 L50.1771739,28.5478261 C50.1771739,27.9652174 49.6673913,27.4554348 49.0847826,27.4554348 L45.0065217,27.4554348 Z M0.436956522,13.2543478 L0.436956522,52.8717391 C0.436956522,56.4402174 3.35,59.2804348 6.84565217,59.2804348 L38.0152174,59.2804348 C37.5054348,57.6782609 37.2141304,56.0032609 37.2141304,54.3282609 L6.91847826,54.3282609 C6.1173913,54.3282609 5.46195652,53.6728261 5.46195652,52.8717391 L5.46195652,23.5956522 L54.3282609,23.5956522 L54.3282609,37.2869565 C56.076087,37.2869565 57.751087,37.5782609 59.2804348,38.0152174 L59.2804348,13.2543478 C59.2804348,9.68586957 56.3673913,6.84565217 52.8717391,6.84565217 L45.6619565,6.84565217 L45.6619565,2.84021739 C45.6619565,1.52934783 44.6423913,0.509782609 43.3315217,0.509782609 L39.6902174,0.509782609 C38.3793478,0.509782609 37.3597826,1.52934783 37.3597826,2.84021739 L37.3597826,6.84565217 L22.5032609,6.84565217 L22.5032609,2.84021739 C22.5032609,1.52934783 21.4836957,0.509782609 20.1728261,0.509782609 L16.5315217,0.509782609 C15.2206522,0.509782609 14.201087,1.52934783 14.201087,2.84021739 L14.201087,6.84565217 L6.99130435,6.84565217 C3.35,6.84565217 0.436956522,9.75869565 0.436956522,13.2543478 Z M66.5630435,54.1826087 C66.5630435,60.9554348 61.0282609,66.4902174 54.2554348,66.4902174 C47.4826087,66.4902174 41.9478261,60.9554348 41.9478261,54.1826087 C41.9478261,47.4097826 47.4826087,41.875 54.2554348,41.875 C61.0282609,41.875 66.5630435,47.4097826 66.5630435,54.1826087 Z M60.4456522,51.4880435 L58.1152174,49.1576087 L52.726087,54.5467391 L50.4684783,52.2891304 L47.9923913,54.6195652 L50.25,56.8771739 L52.5804348,59.2804348 L54.9836957,56.95 L60.4456522,51.4880435 Z" id="Shape"></path>
                    </g>
                </g>
            </g>
        </g>
    </g>
</svg>