<svg xmlns="http://www.w3.org/2000/svg" viewBox="0 0 287.4 215.3"><defs><style>.cls-1{stroke:#fff;stroke-miterlimit:10;stroke-width:2px;}</style></defs><title>Fichier 1</title><g id="Calque_2" data-name="Calque 2"><g id="Calque_1-2" data-name="Calque 1"><path class="cls-1" d="M286.4,89.6c0-1.3,0-2.6-.1-4v-.1c0-1.3-.1-2.7-.2-4h0C283.8,45.8,266,1,210.2,1c-28.9,0-51.8,12.3-66.7,32.9C132.8,14.9,113.4,1,80.2,1c-24.5,0-47.8,10.8-64,21.1a1.3,1.3,0,0,0-.5,1.3L23.1,45a1.15,1.15,0,0,0,1.7.6c13.7-8.6,33.3-18,51.1-18,40.3,0,43.8,33.5,43.8,49.9v3a1.05,1.05,0,0,1-.5.9h0c-.1.1-.2.1-.3.2s-.2.1-.4.1h-8.9a17.7,17.7,0,0,0-2.3.1,6.15,6.15,0,0,0-1.4.1c-.7,0-1.5.1-2.2.1a6.6,6.6,0,0,0-1.4.1c-.8,0-1.5.1-2.3.1-.4,0-.8.1-1.3.1-.9.1-1.7.1-2.6.2a2.77,2.77,0,0,0-.9.1c-2.3.2-4.6.4-6.9.7-.3,0-.5.1-.8.1l-2.5.3c-.3,0-.7.1-1,.1l-2.3.3c-.3,0-.7.1-1,.1l-2.3.3a2.92,2.92,0,0,0-.9.2c-.8.1-1.6.3-2.4.4-.2,0-.5.1-.7.1a29.31,29.31,0,0,1-2.9.5h-.2c-2.1.4-4.1.9-6.1,1.3a.37.37,0,0,0-.3.1,19.73,19.73,0,0,0-2.6.7c-.2,0-.3.1-.5.1-.8.2-1.6.4-2.3.6-.2.1-.4.1-.6.2-.8.2-1.5.5-2.3.7-.2,0-.3.1-.5.1-.8.3-1.7.5-2.5.8-.1,0-.1,0-.2.1-3.7,1.2-7.1,2.6-10.4,4-.1,0-.1,0-.2.1-.8.3-1.5.7-2.3,1-.1,0-.1.1-.2.1-.7.4-1.5.7-2.2,1.1a.1.1,0,0,0-.1.1,83.3,83.3,0,0,0-12.7,8h-.1C9.3,117.1,1,134.1,1,155.3c0,28.7,26.4,59,66.3,59,39.4,0,57.4-12.6,75.2-40.7,15.5,24.6,40.1,40.6,71.8,40.6,29.3,0,54-18.9,64.3-26.3L267.9,166c-11.5,6.4-25.9,19.4-49.9,19.4-33.5,0-61.5-30.1-62.2-79H285.3C285.6,102.7,286.4,97,286.4,89.6ZM120.5,141.1a38.63,38.63,0,0,1-2,11.5c-5.7,16.8-22,32.2-47.7,32.2-18.3,0-33.8-10.1-33.8-33.4,0-38.2,43.6-45.4,82.4-44.7a1.11,1.11,0,0,1,1.1,1.1Zm35.6-59.7c2.7-25.1,17.5-54.7,51.4-54.7,37.7,0,46.9,31.7,46.5,54.7Z"/></g></g></svg>